<svg>
<path d="M12 0C14.1771 0 16.1849 0.547872 18.0234 1.64362C19.862 2.73936 21.3177 4.22606 22.3906 6.10372C23.4635 7.98138 24 10.0319 24 12.2553C24 14.9255 23.237 17.3271 21.7109 19.4601C20.1849 21.5931 18.2135 23.0691 15.7969 23.8883C15.5156 23.9415 15.3073 23.9043 15.1719 23.7766C15.0365 23.6489 14.9688 23.4894 14.9688 23.2979C14.9688 23.266 14.9714 22.859 14.9766 22.0771C14.9818 21.2952 14.9844 20.5798 14.9844 19.9309C14.9844 18.8989 14.7135 18.1436 14.1719 17.6649C14.7656 17.6011 15.2995 17.5053 15.7734 17.3777C16.2474 17.25 16.737 17.0426 17.2422 16.7553C17.7474 16.4681 18.1693 16.1144 18.5078 15.6941C18.8464 15.2739 19.1224 14.7154 19.3359 14.0186C19.5495 13.3218 19.6562 12.5213 19.6562 11.617C19.6562 10.3511 19.2448 9.25532 18.4219 8.32979C18.8073 7.3617 18.7656 6.2766 18.2969 5.07447C18.0052 4.97872 17.5833 5.03723 17.0312 5.25C16.4792 5.46277 16 5.69681 15.5938 5.95213L15 6.33511C14.0312 6.05851 13.0312 5.92021 12 5.92021C10.9688 5.92021 9.96875 6.05851 9 6.33511C8.83333 6.21809 8.61198 6.07447 8.33594 5.90426C8.0599 5.73404 7.625 5.52926 7.03125 5.28989C6.4375 5.05053 5.99479 4.97872 5.70312 5.07447C5.23438 6.2766 5.19271 7.3617 5.57812 8.32979C4.75521 9.25532 4.34375 10.3511 4.34375 11.617C4.34375 12.5213 4.45052 13.3191 4.66406 14.0106C4.8776 14.7021 5.15104 15.2606 5.48438 15.6862C5.81771 16.1117 6.23698 16.4681 6.74219 16.7553C7.2474 17.0426 7.73698 17.25 8.21094 17.3777C8.6849 17.5053 9.21875 17.6011 9.8125 17.6649C9.40625 18.0479 9.15104 18.5957 9.04688 19.3085C8.82812 19.4149 8.59375 19.4947 8.34375 19.5479C8.09375 19.6011 7.79688 19.6277 7.45312 19.6277C7.10938 19.6277 6.76823 19.5133 6.42969 19.2846C6.09115 19.0559 5.80208 18.7234 5.5625 18.2872C5.36458 17.9468 5.11198 17.6702 4.80469 17.4574C4.4974 17.2447 4.23958 17.117 4.03125 17.0745L3.71875 17.0266C3.5 17.0266 3.34896 17.0505 3.26562 17.0984C3.18229 17.1463 3.15625 17.2074 3.1875 17.2819C3.21875 17.3564 3.26562 17.4309 3.32812 17.5053C3.39062 17.5798 3.45833 17.6436 3.53125 17.6968L3.64062 17.7766C3.86979 17.883 4.09635 18.0851 4.32031 18.383C4.54427 18.6809 4.70833 18.9521 4.8125 19.1968L4.96875 19.5638C5.10417 19.9681 5.33333 20.2952 5.65625 20.5452C5.97917 20.7952 6.32812 20.9548 6.70312 21.0239C7.07812 21.0931 7.4401 21.1303 7.78906 21.1356C8.13802 21.141 8.42708 21.1223 8.65625 21.0798L9.01562 21.016C9.01562 21.4202 9.01823 21.891 9.02344 22.4282C9.02865 22.9654 9.03125 23.2553 9.03125 23.2979C9.03125 23.4894 8.96354 23.6489 8.82812 23.7766C8.69271 23.9043 8.48438 23.9415 8.20312 23.8883C5.78646 23.0691 3.8151 21.5931 2.28906 19.4601C0.763021 17.3271 0 14.9255 0 12.2553C0 10.0319 0.536458 7.98138 1.60938 6.10372C2.68229 4.22606 4.13802 2.73936 5.97656 1.64362C7.8151 0.547872 9.82292 0 12 0ZM4.54688 17.6011C4.57812 17.5266 4.54167 17.4628 4.4375 17.4096C4.33333 17.3777 4.26562 17.3883 4.23438 17.4415C4.20312 17.516 4.23958 17.5798 4.34375 17.633C4.4375 17.6968 4.50521 17.6862 4.54688 17.6011ZM5.03125 18.1436C5.10417 18.0904 5.09375 18.0053 5 17.8883C4.89583 17.7926 4.8125 17.7766 4.75 17.8404C4.67708 17.8936 4.6875 17.9787 4.78125 18.0957C4.88542 18.2021 4.96875 18.2181 5.03125 18.1436ZM5.5 18.8617C5.59375 18.7872 5.59375 18.6862 5.5 18.5585C5.41667 18.4202 5.32812 18.3883 5.23438 18.4628C5.14062 18.516 5.14062 18.6117 5.23438 18.75C5.32812 18.8883 5.41667 18.9255 5.5 18.8617ZM6.15625 19.5319C6.23958 19.4468 6.21875 19.3457 6.09375 19.2287C5.96875 19.1011 5.86458 19.0851 5.78125 19.1809C5.6875 19.266 5.70833 19.367 5.84375 19.484C5.96875 19.6117 6.07292 19.6277 6.15625 19.5319ZM7.04688 19.9309C7.07812 19.8138 7.01042 19.7287 6.84375 19.6755C6.6875 19.633 6.58854 19.6702 6.54688 19.7872C6.50521 19.9043 6.57292 19.984 6.75 20.0266C6.90625 20.0904 7.00521 20.0585 7.04688 19.9309ZM8.03125 20.0106C8.03125 19.8723 7.94271 19.8138 7.76562 19.8351C7.59896 19.8351 7.51562 19.8936 7.51562 20.0106C7.51562 20.1489 7.60417 20.2074 7.78125 20.1862C7.94792 20.1862 8.03125 20.1277 8.03125 20.0106ZM8.9375 19.8511C8.91667 19.734 8.82292 19.6862 8.65625 19.7074C8.48958 19.7394 8.41667 19.8191 8.4375 19.9468C8.45833 20.0745 8.55208 20.117 8.71875 20.0745C8.88542 20.0319 8.95833 19.9574 8.9375 19.8511Z"/>
</svg>
