<svg width="25" height="25" viewBox="0 0 25 25" fill="none" xmlns="http://www.w3.org/2000/svg">
<path d="M19.8921 24.3906H3.39209C2.59644 24.3906 1.83338 24.0746 1.27077 23.5119C0.70816 22.9493 0.39209 22.1863 0.39209 21.3906V4.89062C0.39209 4.09498 0.70816 3.33191 1.27077 2.7693C1.83338 2.2067 2.59644 1.89062 3.39209 1.89062H9.39209V4.89062H3.39209V21.3906H19.8921V15.3906H22.8921V21.3906C22.8921 22.1863 22.576 22.9493 22.0134 23.5119C21.4508 24.0746 20.6877 24.3906 19.8921 24.3906ZM11.9421 14.9511L9.82709 12.8301L19.2666 3.39062H13.8921V0.390625H24.3921V10.8906H21.3921V5.51312L11.9421 14.9511Z" />
</svg>
