<svg  viewBox="0 0 912 881" fill="none" xmlns="http://www.w3.org/2000/svg">
<ellipse cx="456" cy="440.5" rx="456" ry="440.5" fill="black"/>
<path d="M462.073 265.9L663.067 171L676.89 185.6M462.073 265.9L257.187 171L242.38 185.6M462.073 265.9L689.833 332.573M462.073 265.9V523.347M462.073 265.9L231.393 332.573M775.487 528.7L689.833 332.573M775.487 528.7L791.073 332.573M775.487 528.7L663.067 619.125M462.073 780.793V523.347M462.073 780.793L636.3 640.654M462.073 780.793L279.573 635.355M145.74 528.7L118 308.24M145.74 528.7L264 622.944M145.74 528.7L231.393 332.573M118 308.24L242.38 185.6M118 308.24L231.393 332.573M689.833 332.573H791.073M689.833 332.573L676.89 185.6M689.833 332.573L462.073 523.347M689.833 332.573L663.067 619.125M791.073 332.573L793.007 308.24L676.89 185.6M462.073 523.347L636.3 640.654M462.073 523.347C403.457 562.449 284.893 639.595 279.573 635.355M462.073 523.347L231.393 332.573M636.3 640.654L663.067 619.125M231.393 332.573L242.38 185.6M231.393 332.573L264 622.944M264 622.944L279.573 635.355" stroke="white" stroke-width="13"/>
<path d="M669.965 164.468L665.234 159.471L659.011 162.409L462.035 255.413L261.179 162.38L255.205 159.613L250.517 164.235L235.71 178.835L111.33 301.475L107.988 304.77L108.574 309.426L136.314 529.886L136.797 533.721L139.819 536.129L258.079 630.374L273.653 642.784L456.153 788.223L462.101 792.963L468.028 788.196L642.254 648.057L669.021 626.527L781.441 536.103L784.632 533.535L784.957 529.453L800.543 333.326L802.477 308.993L802.812 304.778L799.905 301.708L683.789 179.068L669.965 164.468Z" stroke="white" stroke-width="19"/>
</svg>
