<svg width="876" height="839" viewBox="0 0 876 839" fill="none" xmlns="http://www.w3.org/2000/svg">
<ellipse cx="438" cy="419.02" rx="438" ry="419.02" fill="black"/>
<path d="M444.327 209.753L645.32 114.853L659.143 129.453M444.327 209.753L239.44 114.853L224.633 129.453M444.327 209.753L672.087 276.427M444.327 209.753V467.2M444.327 209.753L213.647 276.427M757.74 472.553L672.087 276.427M757.74 472.553L773.326 276.427M757.74 472.553L645.32 562.978M444.327 724.647V467.2M444.327 724.647L618.553 584.508M444.327 724.647L261.827 579.208M127.993 472.553L100.253 252.093M127.993 472.553L246.253 566.797M127.993 472.553L213.647 276.427M100.253 252.093L224.633 129.453M100.253 252.093L213.647 276.427M672.087 276.427H773.326M672.087 276.427L659.143 129.453M672.087 276.427L444.327 467.2M672.087 276.427L645.32 562.978M773.326 276.427L775.26 252.093L659.143 129.453M444.327 467.2L618.553 584.508M444.327 467.2C385.71 506.303 267.147 583.448 261.827 579.208M444.327 467.2L213.647 276.427M618.553 584.508L645.32 562.978M213.647 276.427L224.633 129.453M213.647 276.427L246.253 566.797M246.253 566.797L261.827 579.208" stroke="white" stroke-width="25"/>
<path d="M652.218 108.322L647.487 103.324L641.264 106.263L444.288 199.266L243.433 106.233L237.458 103.466L232.77 108.089L217.963 122.689L93.5833 245.329L90.2418 248.623L90.8276 253.279L118.568 473.739L119.05 477.574L122.073 479.983L240.333 574.227L255.906 586.638L438.406 732.076L444.354 736.816L450.281 732.049L624.508 591.91L651.274 570.381L763.694 479.956L766.886 477.389L767.21 473.306L782.796 277.179L784.73 252.846L785.065 248.632L782.158 245.562L666.042 122.922L652.218 108.322Z" stroke="white" stroke-width="19"/>
</svg>
