<svg viewBox="0 0 41 31" fill="none" xmlns="http://www.w3.org/2000/svg">
<path d="M8.24 0.28H8.48C8.93333 0.28 9.16 0.506666 9.16 0.959998V2.44C9.16 2.89333 8.93333 3.12 8.48 3.12H8.36C7.48 3.12 6.85333 3.36 6.48 3.84C6.13333 4.29333 5.96 5.04 5.96 6.08V11.28C5.96 13.3867 5.17333 14.6933 3.6 15.2C5.17333 15.6533 5.96 16.9467 5.96 19.08V24.28C5.96 25.32 6.13333 26.0667 6.48 26.52C6.85333 27 7.48 27.24 8.36 27.24H8.48C8.93333 27.24 9.16 27.4667 9.16 27.92V29.4C9.16 29.8533 8.93333 30.08 8.48 30.08H8.24C4.61333 30.08 2.8 28.0133 2.8 23.88V19.36C2.8 17.7333 2.14667 16.92 0.84 16.92C0.36 16.92 0.12 16.68 0.12 16.2V14.16C0.12 13.7067 0.36 13.48 0.84 13.48C2.14667 13.48 2.8 12.6533 2.8 11V6.48C2.8 2.34667 4.61333 0.28 8.24 0.28Z" fill="#C3B4CA"/>
<path d="M17.0607 26H14.0007C13.4967 26 13.2447 25.748 13.2447 25.244V3.608C13.2447 3.104 13.4967 2.852 14.0007 2.852H22.5687C24.4407 2.852 25.9047 3.368 26.9607 4.4C28.0167 5.432 28.5447 6.884 28.5447 8.756V11.564C28.5447 14.276 27.4767 16.076 25.3407 16.964V17.108L29.1927 25.136C29.4087 25.712 29.2047 26 28.5807 26H25.6647C25.2327 26 24.9207 25.952 24.7287 25.856C24.5367 25.76 24.3807 25.556 24.2607 25.244L20.6607 17.468H18.2487C17.9607 17.468 17.8167 17.6 17.8167 17.864V25.244C17.8167 25.748 17.5647 26 17.0607 26ZM18.2127 13.796H21.7407C22.5087 13.796 23.0727 13.64 23.4327 13.328C23.7927 12.992 23.9727 12.464 23.9727 11.744V8.936C23.9727 8.192 23.7927 7.652 23.4327 7.316C23.0727 6.98 22.5087 6.812 21.7407 6.812H18.2127C17.9487 6.812 17.8167 6.944 17.8167 7.208V13.4C17.8167 13.664 17.9487 13.796 18.2127 13.796Z" fill="#310444"/>
<path d="M37.7522 6.48V11C37.7522 12.6533 38.4055 13.48 39.7122 13.48C40.1655 13.48 40.3922 13.7067 40.3922 14.16V16.2C40.3922 16.68 40.1122 16.92 39.5522 16.92C38.3522 16.92 37.7522 17.7333 37.7522 19.36V23.88C37.7522 28.0133 35.9389 30.08 32.3122 30.08H32.0722C31.5922 30.08 31.3522 29.8533 31.3522 29.4V27.92C31.3522 27.4667 31.5922 27.24 32.0722 27.24H32.1922C33.0722 27.24 33.6855 27 34.0322 26.52C34.3789 26.0667 34.5522 25.32 34.5522 24.28V19.08C34.5522 16.9467 35.3389 15.6533 36.9122 15.2C35.3389 14.6667 34.5522 13.36 34.5522 11.28V6.08C34.5522 5.04 34.3789 4.29333 34.0322 3.84C33.6855 3.36 33.0722 3.12 32.1922 3.12H32.0722C31.5922 3.12 31.3522 2.89333 31.3522 2.44V0.959998C31.3522 0.506666 31.5922 0.28 32.0722 0.28H32.3122C35.9389 0.28 37.7522 2.34667 37.7522 6.48Z" fill="#663E77" fill-opacity="0.39"/>
</svg>
