<svg width="40" height="40" viewBox="0 0 40 40" fill="none" xmlns="http://www.w3.org/2000/svg">
<path d="M8.59461 36.7873L6.01562 7.86096H34.3542L31.7725 36.7828L20.1676 40L8.59461 36.7873Z" fill="#3B3F45"/>
<path d="M29.5624 34.9411L31.7687 10.2261H20.1851V37.5408L29.5624 34.9411Z" fill="#50545B"/>
<path d="M11.9277 20.9543L12.2457 24.502H20.1848V20.9543H11.9277Z" fill="#EBEBEB"/>
<path d="M11.6116 17.3217H20.185V13.7739H20.1727H11.2891L11.6116 17.3217Z" fill="#EBEBEB"/>
<path d="M20.1685 33.8639L20.1848 33.8594V30.1683L20.1693 30.1725L16.2182 29.1056L15.9656 26.2761H14.0457H12.4043L12.9013 31.8465L20.1685 33.8639Z" fill="#EBEBEB"/>
<path d="M12.6851 0H16.9819V1.79687H14.4819V3.59375H16.9819V5.39062H12.6851V0Z" fill="#3B3F45"/>
<path d="M17.8413 0H22.1382V1.5625H19.6382V1.875H22.1382V5.46875H17.8413V3.82812H20.3413V3.51562H17.8413V0Z" fill="#3B3F45"/>
<path d="M22.9976 0H27.2944V1.5625H24.7944V1.875H27.2944V5.46875H22.9976V3.82812H25.4976V3.51562H22.9976V0Z" fill="#3B3F45"/>
<path d="M29.0599 13.7739H20.1729V17.3217H25.1719L24.8491 20.9546H20.1729V24.5022H24.5414L24.1296 29.1033L20.1729 30.1713V33.8622L27.4458 31.8465L27.4992 31.2471L28.3329 21.9072L28.4194 20.9546L29.0599 13.7739Z" fill="white"/>
</svg>
