<svg width="76" height="40" viewBox="0 0 76 38" fill="none" xmlns="http://www.w3.org/2000/svg">
<path d="M25.3334 26.4435V11.8483H26.1251V14.1442C26.2186 14.0424 26.3049 13.9342 26.3835 13.8205C27.0447 12.4487 28.4393 11.583 29.9618 11.6001C31.7668 11.5462 33.2336 12.2144 34.0956 13.8205C34.6441 14.8183 34.9459 15.9329 34.9759 17.0711C35.0059 18.2093 34.7631 19.3382 34.2679 20.3635C33.4648 22.1634 31.4812 23.0583 29.3576 22.7296C28.6968 22.6735 28.0605 22.4526 27.5069 22.0873C26.9533 21.722 26.5 21.2239 26.1884 20.6384V26.4429L25.3334 26.4435ZM26.1251 17.0113L26.3024 18.7251C26.6153 20.6757 27.7686 21.8284 29.5793 22.045C30.4296 22.1848 31.3021 22.0254 32.048 21.5939C32.794 21.1625 33.3672 20.4857 33.67 19.6789C34.3743 18.0005 34.3223 16.1005 33.5307 14.4615C33.2075 13.7383 32.6577 13.1399 31.9644 12.7568C31.2711 12.3737 30.4719 12.2266 29.6876 12.3379C28.9514 12.3915 28.2502 12.673 27.6814 13.1433C27.1125 13.6136 26.7043 14.2494 26.5133 14.9624C26.3447 15.6372 26.2151 16.321 26.1251 17.0106V17.0113ZM51.1405 18.9949C51.0204 20.0225 50.5312 20.9715 49.7639 21.6655C48.9965 22.3595 48.0032 22.7511 46.9687 22.7676C43.6488 22.9348 42.0908 20.7302 41.8432 18.1861C41.671 16.8045 41.8952 15.4025 42.4898 14.1435C42.9036 13.2799 43.5816 12.5705 44.4256 12.1179C45.2696 11.6654 46.2357 11.4934 47.1841 11.6267C48.0856 11.7033 48.9402 12.0615 49.6269 12.6506C50.3137 13.2397 50.7977 14.0299 51.0107 14.9092C51.1793 15.7103 51.3034 16.5201 51.3824 17.3349H42.6633C42.5018 19.6415 43.7413 21.4959 45.4981 21.943C47.6863 22.4814 49.5565 21.5333 50.2355 19.4528C50.3862 18.9189 50.6611 18.8435 51.1462 18.9949H51.1405ZM42.657 16.5964H50.4559C50.4071 14.1391 48.877 12.3531 46.8015 12.3328C44.4582 12.2948 42.759 14.0093 42.657 16.5964ZM52.7523 19.0487H53.5168C53.5448 19.6119 53.7277 20.1564 54.0453 20.6223C54.3629 21.0883 54.8028 21.4576 55.3167 21.6897C55.962 21.9801 56.6644 22.1212 57.3718 22.1026C58.0792 22.0839 58.7732 21.906 59.4023 21.582C59.7453 21.4276 60.0325 21.1717 60.2253 20.8488C60.4181 20.5258 60.5071 20.1515 60.4803 19.7764C60.5 19.4146 60.4012 19.0563 60.1989 18.7557C59.9966 18.4551 59.7019 18.2287 59.3593 18.1107C58.5182 17.7979 57.6239 17.6256 56.767 17.3507C55.8754 17.0969 55.0035 16.7781 54.1583 16.3969C52.7777 15.7231 52.6922 13.0985 54.2552 12.2676C55.0556 11.816 55.9563 11.572 56.8751 11.5578C57.794 11.5436 58.7018 11.7598 59.5157 12.1865C60.5252 12.7439 61.0832 13.8693 60.9173 15.0112H60.2618C60.2618 14.9795 60.2022 14.9517 60.2022 14.9194C60.1212 12.8294 58.3643 12.1758 56.4782 12.3594C55.9082 12.4228 55.368 12.595 54.8613 12.8496C54.5568 12.9887 54.3029 13.219 54.135 13.5087C53.9671 13.7984 53.8933 14.1331 53.924 14.4665C53.9246 14.8002 54.0286 15.1255 54.2216 15.3977C54.4147 15.6699 54.6872 15.8756 55.0019 15.9865C55.8253 16.2886 56.6993 16.4824 57.5511 16.7193L59.6094 17.2576C60.0773 17.4112 60.4875 17.7031 60.7858 18.0949C61.0841 18.4866 61.2565 18.9597 61.2802 19.4515C61.4448 20.5567 60.8812 21.6428 59.8843 22.1463C58.0844 23.1647 55.1197 22.8956 53.7992 21.608C53.1235 20.9284 52.7466 20.0057 52.7542 19.0481L52.7523 19.0487ZM70.9797 15.0118H70.2627C70.2627 14.9149 70.2247 14.8218 70.214 14.7477C70.2025 14.2103 70.0067 13.6932 69.6592 13.283C69.3118 12.8729 68.8339 12.5946 68.3057 12.495C67.3093 12.2092 66.2465 12.2604 65.2822 12.6406C64.9009 12.7498 64.5652 12.9794 64.3252 13.2951C64.0853 13.6109 63.9539 13.9958 63.9509 14.3924C63.9373 14.7818 64.0585 15.164 64.2942 15.4743C64.5298 15.7846 64.8654 16.0041 65.2442 16.0955L68.5211 16.9365C68.8754 17.0215 69.2244 17.1277 69.5661 17.2545C70.6111 17.6345 71.3204 18.6047 71.3521 19.7137C71.3677 20.2565 71.2188 20.7914 70.925 21.248C70.6311 21.7047 70.2059 22.0618 69.7054 22.2724C68.9448 22.6178 68.1205 22.8006 67.2852 22.809C66.4499 22.8174 65.622 22.6513 64.8547 22.3211C64.2236 22.049 63.6911 21.5901 63.3288 21.0062C62.9664 20.4222 62.7917 19.7413 62.828 19.055H63.5285C63.792 20.3249 64.6641 21.3825 65.8604 21.8829C67.0568 22.3832 68.4229 22.2603 69.511 21.5561C69.8374 21.3863 70.1084 21.1265 70.2918 20.8075C70.4752 20.4886 70.5634 20.1237 70.5458 19.7561C70.5621 19.3941 70.4598 19.0367 70.2545 18.738C70.0492 18.4393 69.7522 18.2158 69.4084 18.1012C68.5673 17.7884 67.673 17.6218 66.8161 17.3412C65.9195 17.0913 65.0423 16.7761 64.1916 16.3982C62.8439 15.7351 62.7362 13.1321 64.2727 12.3018C65.0829 11.8312 66.0012 11.5784 66.9381 11.568C67.8751 11.5576 68.7987 11.7898 69.6193 12.2423C70.0886 12.5224 70.4663 12.9329 70.7065 13.4238C70.9467 13.9148 71.039 14.465 70.9721 15.0074L70.9797 15.0118ZM24.0307 22.5042C23.7485 22.6109 23.4369 22.6106 23.1549 22.5034C22.8729 22.3961 22.6399 22.1894 22.4999 21.9221L19.7132 18.0683L19.3092 17.53L16.0754 21.9278C15.9436 22.1836 15.7232 22.3826 15.4553 22.4878C15.1875 22.5929 14.8906 22.5969 14.62 22.4991L18.786 16.9099L14.91 11.8597C15.4851 11.652 16.126 11.8775 16.4459 12.3981L19.3339 16.2994L22.239 12.4133C22.3717 12.1619 22.5923 11.9681 22.8587 11.8687C23.125 11.7693 23.4186 11.7713 23.6836 11.8743L22.1794 13.8699L20.142 16.5217C20.0855 16.5722 20.0402 16.6341 20.0092 16.7033C19.9783 16.7725 19.9622 16.8474 19.9622 16.9232C19.9622 16.999 19.9783 17.074 20.0092 17.1432C20.0402 17.2124 20.0855 17.2743 20.142 17.3248L24.0224 22.5042H24.0307ZM41.7197 11.8059V12.5659C41.1745 12.5301 40.628 12.6091 40.1152 12.7976C39.6025 12.9862 39.135 13.2801 38.7429 13.6605C38.3508 14.0409 38.0429 14.4993 37.8389 15.0061C37.6349 15.5129 37.5394 16.0568 37.5587 16.6028C37.5587 18.3778 37.5587 20.1528 37.5587 21.9278V22.5314H36.7879V11.8534H37.5479V14.0416C38.4802 12.4456 39.9191 11.8534 41.7247 11.8103L41.7197 11.8059ZM4.64433 16.8403L4.9838 15.1638C5.91607 11.849 9.71607 10.4696 12.3305 12.5228C13.8612 13.7249 14.2431 15.4279 14.1684 17.3469H5.5443C5.40497 20.7745 7.87813 22.8443 11.0416 21.7879C12.0841 21.4079 12.8688 20.5415 13.1272 19.4648C13.2944 18.9265 13.5705 18.834 14.0759 18.9898C13.9916 19.646 13.7597 20.2746 13.3974 20.8282C13.0352 21.3819 12.5522 21.8462 11.9847 22.1862C11.0471 22.699 9.97131 22.9022 8.91126 22.7667C7.85122 22.6312 6.86115 22.164 6.08263 21.4319C5.3125 20.5662 4.84763 19.4718 4.75707 18.3159C4.75707 18.1259 4.69373 17.9486 4.6494 17.7776C4.64518 17.458 4.64307 17.1455 4.64307 16.8403H4.64433ZM5.55507 16.6085H13.3539C13.3052 14.1239 11.737 12.3613 9.64577 12.3449C7.31763 12.3132 5.65197 14.0371 5.54937 16.5977L5.55507 16.6085Z" fill="#3B3F45"/>
</svg>
