<svg width="75" height="37" viewBox="0 0 75 37" fill="none" xmlns="http://www.w3.org/2000/svg">
<path d="M11.237 33.1973C13.9766 33.1973 16.2005 31.003 16.2005 28.2999V23.4026H11.237C8.4974 23.4026 6.27344 25.5969 6.27344 28.2999C6.27344 31.003 8.4974 33.1973 11.237 33.1973Z" fill="#3B3F45"/>
<path d="M6.26807 18.4999C6.26807 15.7968 8.49202 13.6025 11.2316 13.6025H16.1951V23.4024H11.2316C8.49202 23.4024 6.26807 21.2081 6.26807 18.505V18.4999Z" fill="#3B3F45"/>
<path d="M6.26807 8.7001C6.26807 5.99704 8.49202 3.80273 11.2316 3.80273H16.1951V13.6026H11.2316C8.49202 13.6026 6.26807 11.4083 6.26807 8.70523V8.7001Z" fill="#3B3F45"/>
<path d="M16.1538 3.80273H21.1174C23.8569 3.80273 26.0809 5.99704 26.0809 8.7001C26.0809 11.4032 23.8569 13.5975 21.1174 13.5975H16.1538V3.80273Z" fill="#3B3F45"/>
<path d="M26.133 18.4999C26.133 21.203 23.909 23.3973 21.1694 23.3973C18.4299 23.3973 16.1538 21.203 16.1538 18.4999C16.1538 15.7968 18.3778 13.6025 21.1174 13.6025C23.8569 13.6025 26.0809 15.7968 26.0809 18.4999H26.133Z" fill="#3B3F45"/>
<path d="M31.5601 11.9221V22.1896H32.8986V17.2871H36.1174V16.0127H32.8986V13.2068H37.0809V11.9221H31.5601ZM39.5028 14.0085C39.9871 14.0085 40.3778 13.6231 40.3778 13.1452C40.3778 12.6673 39.9819 12.3332 39.5028 12.3332C39.0236 12.3332 38.6278 12.7186 38.6278 13.1966C38.6278 13.4278 38.7215 13.6436 38.8882 13.8132C39.0549 13.9828 39.2736 14.0702 39.5132 14.0702L39.5028 14.0085ZM38.8257 15.3035V22.1896H40.1121V15.3035H38.784H38.8257ZM45.1382 15.098C43.3569 15.098 42.1173 16.6396 42.1173 18.3457C42.1173 20.0518 43.3673 21.5832 45.1382 21.5832C45.5067 21.5896 45.8724 21.5202 46.2123 21.3796C46.5521 21.2389 46.8586 21.03 47.1121 20.7661V21.6809C47.1084 22.2305 46.8923 22.7579 46.508 23.1557C46.3138 23.3512 46.082 23.5064 45.8262 23.6123C45.5704 23.7182 45.2958 23.7726 45.0184 23.7724C44.5925 23.7591 44.1797 23.6234 43.8309 23.3818L43.1538 24.5278C43.6738 24.8578 44.2743 25.0432 44.8921 25.0647C45.51 25.0862 46.1222 24.9429 46.6644 24.6499C47.2067 24.3569 47.6588 23.925 47.9731 23.3998C48.2875 22.8746 48.4524 22.2754 48.4507 21.6655V15.2932H47.1121V15.9099C46.8586 15.646 46.5521 15.4371 46.2123 15.2965C45.8724 15.1558 45.5067 15.0916 45.1382 15.098ZM43.4611 18.3457C43.4306 18.0116 43.4954 17.6758 43.6482 17.3761C43.801 17.0764 44.0356 16.8249 44.3257 16.6499C44.9194 16.2902 45.6642 16.2902 46.2528 16.6499C46.8413 17.0096 47.1746 17.6674 47.1173 18.3457C47.1479 18.6798 47.0831 19.0157 46.9303 19.3154C46.7775 19.615 46.5428 19.8666 46.2528 20.0416C45.659 20.4013 44.9142 20.4013 44.3257 20.0416C43.7371 19.6818 43.4038 19.0241 43.4611 18.3457Z" fill="#3B3F45"/>
<path d="M53.2785 16.4445C52.8935 16.4458 52.5247 16.5973 52.2525 16.8659C51.9803 17.1345 51.8267 17.4984 51.8254 17.8782V22.236H50.4868V15.3499H51.8254V15.9306C52.2316 15.3961 52.8774 15.0878 53.5545 15.0981C54.4087 15.0775 55.2056 15.5298 55.6274 16.2646C56.1483 15.5452 56.8983 15.1084 57.7108 15.0981C59.2368 15.0981 60.1847 16.3109 60.1899 17.8114V22.1949H58.8514V17.8268C58.8906 17.5547 58.8501 17.2772 58.7345 17.0272C58.6189 16.7771 58.4332 16.5649 58.1992 16.4158C57.9653 16.2666 57.693 16.1866 57.4144 16.1853C57.1359 16.184 56.8628 16.2615 56.6274 16.4085C56.3934 16.559 56.2081 16.7727 56.0936 17.0242C55.9791 17.2756 55.9403 17.5542 55.9816 17.8268V22.1846H54.6951V17.832C54.6938 17.4521 54.5402 17.0882 54.268 16.8197C53.9958 16.5511 53.627 16.3996 53.242 16.3982L53.2785 16.4445ZM67.341 16.0848C67.0363 15.7711 66.6698 15.5222 66.2641 15.3534C65.8584 15.1846 65.4219 15.0995 64.9816 15.1032C62.9868 15.1032 61.5962 16.7682 61.5962 18.7004C61.5962 20.6327 63.0024 22.2977 64.9816 22.2977C65.4219 22.3014 65.8584 22.2163 66.2641 22.0475C66.6698 21.8787 67.0363 21.6298 67.341 21.3161V22.0973H68.6795V15.2111H67.341V16.0848ZM62.9139 18.757C62.8462 17.9348 63.2524 17.1434 63.966 16.7117C64.6795 16.28 65.5285 16.28 66.2889 16.7117C66.6372 16.925 66.9194 17.2285 67.1049 17.5891C67.2905 17.9497 67.3721 18.3537 67.341 18.757C67.4087 19.5792 67.0024 20.3706 66.2889 20.8022C65.5754 21.2339 64.7264 21.2339 63.966 20.8022C63.6177 20.589 63.3354 20.2855 63.1499 19.9248C62.9644 19.5642 62.8828 19.1602 62.9139 18.757Z" fill="#3B3F45"/>
</svg>
