<svg width="87" height="43" viewBox="0 0 87 43" fill="none" xmlns="http://www.w3.org/2000/svg">
<path d="M36.7328 15.1525C37.5303 15.1525 38.4387 14.9569 39.4769 14.5663V17.0839C39.2464 17.1656 38.9165 17.2559 38.488 17.3527C38.62 17.7275 38.686 18.0779 38.686 18.4033C38.686 19.4461 38.3648 20.3584 37.7217 21.141C37.1172 21.8936 36.2386 22.3824 35.2741 22.5026C34.6216 22.6001 34.2852 22.9506 34.2852 23.5533C34.2852 23.7654 34.3925 23.9833 34.6064 24.189C34.8862 24.4986 35.2987 24.6942 35.8425 24.7752C38.1987 25.1335 39.3783 26.1032 39.3783 27.6834C39.3783 30.209 37.8536 31.4717 34.8108 31.4717C33.558 31.4717 32.5271 31.2517 31.7201 30.8124C30.7051 30.2584 30.1875 29.3791 30.1875 28.1966C30.1875 26.8349 30.9538 25.891 32.4857 25.3858V25.3371C31.9253 24.9952 31.6447 24.4735 31.6447 23.7733C31.6447 22.861 31.9087 22.2898 32.4423 22.0626V22.0139C31.9145 21.8347 31.4454 21.4276 31.0329 20.792C30.571 20.1075 30.3405 19.3744 30.3405 18.5918C30.3405 17.4186 30.761 16.4418 31.602 15.6592C32.3873 14.9339 33.4275 14.5396 34.502 14.5598C35.2911 14.555 36.0675 14.7573 36.7517 15.1461M33.0433 18.6162C33.0433 19.7413 33.5624 20.3025 34.6006 20.3025C35.6061 20.3025 36.1086 19.732 36.1086 18.5918C36.1086 18.1188 35.9926 17.7117 35.7627 17.3699C35.4829 16.9951 35.0957 16.808 34.6006 16.808C33.5624 16.808 33.0433 17.4093 33.0433 18.6162ZM36.851 28.0016C36.851 27.1703 36.1586 26.7546 34.7739 26.7546C33.4384 26.7546 32.7714 27.1861 32.7714 28.0496C32.7714 28.8967 33.4964 29.3203 34.9464 29.3203C36.2151 29.3203 36.851 28.8803 36.851 28.0016ZM42.2674 12.7818C41.7889 12.7818 41.3772 12.6026 41.0313 12.2443C40.7071 11.8995 40.53 11.4443 40.5369 10.9736C40.5369 10.4684 40.7015 10.0369 41.0313 9.67861C41.3772 9.32028 41.7897 9.14111 42.2674 9.14111C42.7293 9.14111 43.1244 9.32028 43.4543 9.67861C43.8001 10.0369 43.9734 10.4691 43.9734 10.9736C43.9762 11.2088 43.9318 11.4423 43.8427 11.6604C43.7536 11.8785 43.6216 12.077 43.4543 12.2443C43.1244 12.6026 42.7293 12.7818 42.2674 12.7818ZM40.858 25.5384C40.8907 25.2124 40.9073 24.6584 40.9073 23.8758V16.277L40.858 14.6881H43.645C43.6123 14.9977 43.5956 15.5108 43.5956 16.2275V23.731L43.645 25.5399H40.8508M48.8258 14.6881H50.9769V17.0588C50.8201 17.0558 50.6634 17.0476 50.5071 17.0345L49.8886 17.0101H48.8258V21.5559C48.8258 22.6474 49.1883 23.1935 49.9133 23.1935C50.4071 23.1987 50.8905 23.0535 51.298 22.7778V25.2145C50.689 25.5406 49.9546 25.7033 49.0977 25.7033C47.8942 25.7033 47.0619 25.2733 46.6008 24.4326C46.2549 23.7969 46.0817 22.795 46.0817 21.4269V17.0524H46.1063V17.0037L45.7351 16.9793C45.4534 16.9849 45.1725 17.0093 44.8941 17.0524V14.6817H46.1049V13.7285C46.1049 13.272 46.0802 12.9058 46.0309 12.6284H48.899C48.8497 12.938 48.8251 13.2877 48.8251 13.679V14.6809M57.5976 14.615C56.8885 14.615 56.1476 14.8587 55.3718 15.3482V11.0711L55.4211 9.23786H52.6023C52.6516 9.49873 52.6763 10.1093 52.6763 11.0711V23.9998L52.6023 25.5392H55.4704C55.4704 25.4904 55.4538 25.2955 55.4211 24.9515L55.3718 23.9983V17.9884C55.9489 17.4509 56.5101 17.1821 57.0538 17.1821C57.6802 17.1821 58.158 17.4917 58.4879 18.1109C58.7344 18.5997 58.8591 19.211 58.8591 19.9441L58.8344 23.2437C58.8344 23.7977 58.7931 24.5623 58.7112 25.5413H61.7025C61.63 25.1342 61.6039 24.3846 61.6039 23.2931V19.9449C61.6039 18.5273 61.2827 17.3219 60.6397 16.3278C59.9147 15.1812 58.8997 14.6172 57.5983 14.6172M67.0987 25.6373C65.7966 25.6373 64.8324 25.0669 64.1987 23.9267C63.7043 22.9979 63.457 21.7767 63.457 20.286V16.9377L63.3584 14.6895H66.3251C66.2758 15.0479 66.2425 15.8147 66.2265 16.9872L66.2019 20.2867C66.2019 21.2155 66.3092 21.8834 66.523 22.2905C66.7696 22.7958 67.2234 23.048 67.8832 23.048C68.345 23.048 68.8641 22.7793 69.4404 22.2418V16.2218C69.4384 15.9035 69.422 15.5854 69.3911 15.2686L69.3419 14.6824H72.2099C72.1773 14.9597 72.1606 15.4729 72.1606 16.2218V23.7074L72.2099 25.5406H69.5275V24.6534C68.7691 25.2984 67.9614 25.6309 67.1045 25.6309M79.2628 25.6065C78.8443 25.6158 78.4287 25.5354 78.0446 25.3709C77.6605 25.2063 77.317 24.9616 77.0377 24.6534V25.5334H74.4168C74.4661 25.2561 74.4908 24.7429 74.4908 23.994V11.0725L74.4168 9.2393H77.2356C77.2023 9.52596 77.1863 10.1437 77.1863 11.0725V15.3252C77.9447 14.8522 78.6871 14.6086 79.4121 14.6086C80.7142 14.6086 81.7365 15.179 82.4789 16.3192C83.1053 17.3133 83.4184 18.5194 83.4184 19.9363C83.4184 21.3861 83.0886 22.6488 82.4296 23.7246C81.632 24.9787 80.5837 25.6065 79.2649 25.6065M78.8937 17.1749C78.35 17.1749 77.7809 17.4437 77.1878 17.9812V22.2167C77.7156 22.7219 78.2347 22.9742 78.7451 22.9742C79.3882 22.9742 79.8739 22.6159 80.2038 21.9236C80.4677 21.3696 80.5996 20.7095 80.5996 19.9441C80.5996 18.1023 80.0312 17.1828 78.8937 17.1828" fill="#3B3F45"/>
<path d="M11.6727 25.093C11.6727 25.163 11.5913 25.219 11.4886 25.219C11.3718 25.2295 11.2904 25.1735 11.2904 25.093C11.2904 25.023 11.3718 24.967 11.4745 24.967C11.5807 24.9565 11.6727 25.0125 11.6727 25.093ZM10.5718 24.9355C10.547 25.0055 10.6178 25.086 10.724 25.107C10.816 25.142 10.9222 25.107 10.9435 25.037C10.9647 24.967 10.8975 24.8866 10.7913 24.8551C10.6992 24.8306 10.5966 24.8656 10.5718 24.9355ZM12.1365 24.8761C12.0338 24.9006 11.963 24.967 11.9736 25.0475C11.9843 25.1175 12.0763 25.163 12.1825 25.1385C12.2852 25.114 12.356 25.0475 12.3453 24.9775C12.3347 24.9111 12.2391 24.8656 12.1365 24.8761ZM14.4658 11.4666C9.55579 11.4666 5.7998 15.1514 5.7998 20.005C5.7998 23.8857 8.27075 27.2066 11.8002 28.3754C12.2533 28.4559 12.4126 28.1794 12.4126 27.952C12.4126 27.735 12.402 26.5382 12.402 25.8034C12.402 25.8034 9.92395 26.3283 9.40356 24.7606C9.40356 24.7606 9 23.7423 8.41943 23.4798C8.41943 23.4798 7.60876 22.9304 8.47607 22.9409C8.47607 22.9409 9.35754 23.0109 9.84253 23.8438C10.6178 25.1945 11.917 24.8061 12.4232 24.5751C12.5046 24.0152 12.7347 23.6268 12.9896 23.3958C11.0107 23.1789 9.01416 22.8954 9.01416 19.5291C9.01416 18.5667 9.2832 18.0838 9.84961 17.4679C9.75757 17.2405 9.45667 16.3027 9.94165 15.0919C10.6815 14.8644 12.3843 16.0367 12.3843 16.0367C13.0923 15.8407 13.8534 15.7393 14.6074 15.7393C15.3615 15.7393 16.1226 15.8407 16.8306 16.0367C16.8306 16.0367 18.5333 14.8609 19.2732 15.0919C19.7582 16.3062 19.4573 17.2405 19.3652 17.4679C19.9316 18.0873 20.2786 18.5702 20.2786 19.5291C20.2786 22.9059 18.1935 23.1754 16.2146 23.3958C16.5403 23.6723 16.8164 24.1972 16.8164 25.0195C16.8164 26.1988 16.8058 27.658 16.8058 27.945C16.8058 28.1724 16.9686 28.4489 17.4182 28.3684C20.9583 27.2066 23.3584 23.8857 23.3584 20.005C23.3584 15.1514 19.3759 11.4666 14.4658 11.4666ZM9.24072 23.5358C9.1947 23.5708 9.20532 23.6513 9.2655 23.7178C9.32214 23.7738 9.40356 23.7983 9.44959 23.7528C9.49561 23.7178 9.48499 23.6373 9.4248 23.5708C9.36816 23.5148 9.28674 23.4903 9.24072 23.5358ZM8.8584 23.2524C8.83362 23.2979 8.86902 23.3538 8.93982 23.3888C8.99646 23.4238 9.06726 23.4133 9.09204 23.3643C9.11682 23.3188 9.08142 23.2629 9.01062 23.2279C8.93982 23.2069 8.88318 23.2174 8.8584 23.2524ZM10.0054 24.4981C9.94873 24.5436 9.96997 24.6486 10.0514 24.7151C10.1328 24.7956 10.2355 24.8061 10.2815 24.7501C10.3275 24.7046 10.3063 24.5996 10.2355 24.5331C10.1576 24.4526 10.0514 24.4421 10.0054 24.4981ZM9.60181 23.9837C9.54517 24.0187 9.54517 24.1097 9.60181 24.1902C9.65845 24.2707 9.75403 24.3057 9.80005 24.2707C9.85669 24.2252 9.85669 24.1342 9.80005 24.0537C9.75049 23.9732 9.65845 23.9382 9.60181 23.9837Z" fill="#3B3F45"/>
</svg>
