<svg width="80" height="40" viewBox="0 0 80 40" fill="none" xmlns="http://www.w3.org/2000/svg">
<path d="M4.2002 14.3167H8.0002V18.07H11.4755V14.3167H15.2755V25.6833H11.4755V21.8833H8.0002V25.6833H4.2002V14.3167ZM20.2715 18.0866H16.9202V14.3173H27.4109V18.0866H24.0642V25.6847H20.2642V18.0866H20.2715ZM29.0762 14.3167H33.0382L35.4755 18.3167L37.9102 14.3167H41.8669V25.6833H38.0829V20.0487L35.4695 24.0907H35.4042L32.8002 20.0493V25.684H29.0829L29.0762 14.3167ZM43.7629 14.3167H47.5629V21.9333H52.9062V25.6906H43.7635L43.7629 14.3167Z" fill="#3B3F45"/>
<path d="M54.7134 8.04004H75.8047L73.8834 29.5654L65.2467 31.96L56.6334 29.5687L54.7134 8.04004Z" fill="#3B3F45"/>
<path d="M72.2399 28.1954L73.8819 9.80078H65.2666V30.1301L72.2399 28.1954Z" fill="#43474E"/>
<path d="M61.7665 17.7854L61.5252 15.0814H65.2665V12.4414H58.6465L59.3585 20.4261H65.2665V17.7861L61.7665 17.7854ZM59.4692 21.7467L59.8392 25.8934L65.2478 27.3947L65.2598 27.3914V24.6447L65.2485 24.6481L62.3152 23.8481L62.1272 21.7414H60.6985L59.4692 21.7467Z" fill="#EBEBEB"/>
<path d="M71.3241 18.4932L71.3888 17.7839H65.2515V20.4239H68.5028L68.1961 23.8486L65.2515 24.6432V27.3899L70.6648 25.8899L70.7048 25.4432L71.3241 18.4932ZM65.2575 15.0812H71.6355L71.8721 12.4346H65.2575V15.0679V15.0812Z" fill="white"/>
</svg>
