<svg width="86" height="34" viewBox="0 0 86 34" fill="none" xmlns="http://www.w3.org/2000/svg">
<path d="M12.2863 23.8613C12.2863 23.8613 11.2297 24.4971 13.0213 24.679C15.1811 24.951 16.3295 24.9057 18.7191 24.4524C19.1994 24.7429 19.7073 24.9862 20.2356 25.1788C14.8594 27.4495 8.05799 25.0428 12.2858 23.8619L12.2863 23.8613ZM11.5972 20.909C11.5972 20.909 10.4482 21.772 12.2405 21.9534C14.5842 22.18 16.4218 22.2254 19.5929 21.5907C19.9013 21.9 20.279 22.1333 20.6954 22.2718C14.2167 24.1792 6.95604 22.4532 11.5966 20.9096L11.5972 20.909ZM24.2793 26.0866C24.2793 26.0866 25.0608 26.7224 23.4061 27.2222C20.3273 28.1306 10.4935 28.4032 7.73692 27.2222C6.772 26.8142 8.61011 26.2232 9.20752 26.1325C9.80494 25.9965 10.1266 25.9965 10.1266 25.9965C9.06992 25.2701 3.09579 27.4954 7.08791 28.1312C18.0701 29.9026 27.1225 27.3594 24.2736 26.0872L24.2793 26.0866ZM12.792 17.8207C12.792 17.8207 7.78336 19.0016 10.9998 19.4102C12.3781 19.5915 15.0893 19.5462 17.616 19.3648C19.684 19.1835 21.7515 18.8197 21.7515 18.8197C21.7515 18.8197 21.0165 19.137 20.5108 19.4555C15.4104 20.7724 5.62247 20.182 8.42492 18.8197C10.8146 17.6841 12.7903 17.8207 12.7903 17.8207H12.792ZM21.7532 22.7711C26.8994 20.1361 24.5109 17.5934 22.8563 17.9113C22.4435 18.002 22.2589 18.0927 22.2589 18.0927C22.2589 18.0927 22.3965 17.8207 22.7176 17.73C25.9798 16.5944 28.5541 21.1357 21.6609 22.9076C21.6609 22.9076 21.7068 22.8623 21.7526 22.7716L21.7532 22.7711ZM13.2977 29.9468C18.2605 30.2641 25.8422 29.7654 26.0257 27.4489C26.0257 27.4489 25.6588 28.3573 21.9361 29.0384C17.7083 29.8108 12.4761 29.7195 9.39156 29.2197C9.39156 29.2197 10.0348 29.7649 13.2971 29.9462L13.2977 29.9468Z" fill="#3B3F45"/>
<path d="M18.6274 2.83337C18.6274 2.83337 21.4769 5.69504 15.9155 10.0091C11.4584 13.5054 14.9048 15.5046 15.9155 17.7752C13.2966 15.4593 11.4126 13.4153 12.7049 11.5079C14.5843 8.69271 19.7764 7.32987 18.6274 2.83337ZM17.1568 15.8678C18.4892 17.3667 16.7899 18.7295 16.7899 18.7295C16.7899 18.7295 20.1897 17.0034 18.628 14.8688C17.2032 12.8248 16.1007 11.8258 22.0737 8.42014C22.0737 8.42014 12.6538 10.7361 17.1568 15.8678Z" fill="#3B3F45"/>
<path d="M52.5613 25.2636V14.9582C52.5613 12.3289 51.0718 10.5416 47.348 10.5416C45.221 10.5416 43.4115 11.0675 41.8154 11.6976L42.3474 13.5903C43.517 13.1698 45.0077 12.7488 46.6033 12.7488C48.6248 12.7488 49.5823 13.5903 49.5823 15.2727V16.6395H48.5182C43.4115 16.6395 41.0649 18.5322 41.0649 21.582C41.0649 24.1059 42.661 25.5781 45.5334 25.5781C47.3423 25.5781 48.7252 24.7366 50.002 23.6855L50.2141 25.2631H52.555L52.5613 25.2636ZM49.5823 21.8988C48.5182 22.8451 47.348 23.371 46.2839 23.371C44.901 23.371 44.0496 22.5295 44.0496 21.0573C44.0496 19.5851 44.901 18.5333 48.3055 18.5333H49.5823V21.8988ZM62.5626 25.2636H58.8388L54.3702 10.8573H57.562L60.3283 19.6905L60.9664 22.3198C62.3499 18.5345 63.4134 14.6432 63.8388 10.8578H67.0306C66.1792 15.5895 64.6902 20.7422 62.562 25.2642L62.5626 25.2636ZM79.7981 25.2636V14.9582C79.7981 12.3289 78.3086 10.5416 74.5848 10.5416C72.4577 10.5416 70.6483 11.0675 69.0521 11.6976L69.4775 13.5903C70.7544 13.1698 72.2439 12.7488 73.8395 12.7488C75.861 12.7488 76.8185 13.5903 76.8185 15.2727V16.6395H75.7544C70.6477 16.6395 68.3011 18.5322 68.3011 21.582C68.3011 24.1059 69.7906 25.5781 72.663 25.5781C74.5779 25.5781 75.9614 24.7366 77.2382 23.6855L77.4503 25.2631H79.7912L79.7981 25.2636ZM76.8191 21.8988C75.755 22.8451 74.5848 23.371 73.5207 23.371C72.1378 23.371 71.2864 22.5295 71.2864 21.0573C71.2864 19.5851 72.1372 18.5333 75.5423 18.5333H76.8191V21.8988ZM37.7728 27.6816C36.9214 28.9436 35.6457 29.8899 34.049 30.4158L32.6655 28.7328C33.7296 28.1021 34.7937 27.1557 35.2192 26.3142C35.6446 25.5776 35.7512 24.5264 35.7512 22.1079V5.70288H38.943V21.8971C38.943 25.1571 38.6236 26.4191 37.7734 27.6805L37.7728 27.6816Z" fill="#3B3F45"/>
</svg>
