<svg width="68" height="41" viewBox="0 0 68 41" fill="none" xmlns="http://www.w3.org/2000/svg">
<g clip-path="url(#clip0_1246_758)">
<path d="M16.0451 10.6986H28.8705V11.7169H17.2207V19.3807H28.1759V20.399H17.2207V28.8131H29.0041V29.8314H16.0451V10.6986ZM30.0196 10.6986H31.3823L37.4208 19.1127L43.593 10.6984L51.9883 0.0107422L38.1957 19.9971L45.3031 29.8314H43.887L37.4208 20.8813L30.9279 29.8314H29.5386L36.6994 19.997L30.0196 10.6986ZM45.8108 11.7169V10.6984H60.4265V11.7168H53.693V29.8312H52.5174V11.7169H45.8108ZM0 10.6984H1.46957L21.7341 40.9895L13.3599 29.8312L1.22905 12.1456L1.17566 29.8315H0L0 10.6984ZM60.308 28.5056C60.0678 28.5056 59.8877 28.3199 59.8877 28.0795C59.8877 27.8393 60.0678 27.6533 60.308 27.6533C60.5511 27.6533 60.7284 27.8392 60.7284 28.0795C60.7284 28.3197 60.5511 28.5056 60.308 28.5056ZM61.4632 27.3846H62.0924C62.1009 27.7249 62.3496 27.9537 62.7157 27.9537C63.1246 27.9537 63.3562 27.7077 63.3562 27.2473V24.3299H63.9968V27.25C63.9968 28.0795 63.5164 28.5572 62.7214 28.5572C61.975 28.5572 61.4632 28.0938 61.4632 27.3844V27.3846ZM64.8345 27.3474H65.4694C65.5237 27.7392 65.9069 27.9879 66.4588 27.9879C66.9735 27.9879 67.3509 27.7219 67.3509 27.3559C67.3509 27.0414 67.1107 26.8526 66.5646 26.7239L66.0327 26.5952C65.2862 26.4206 64.9461 26.0603 64.9461 25.454C64.9461 24.719 65.5466 24.2299 66.4473 24.2299C67.2851 24.2299 67.8971 24.7189 67.9343 25.4139H67.3108C67.2508 25.0336 66.919 24.7961 66.4387 24.7961C65.9326 24.7961 65.5953 25.0393 65.5953 25.411C65.5953 25.7055 65.8124 25.8744 66.3501 26.0002L66.8047 26.1118C67.6511 26.3092 68 26.6524 68 27.273C68 28.0624 67.3881 28.5572 66.4102 28.5572C65.4952 28.5572 64.8802 28.0852 64.8345 27.3473V27.3474Z" fill="#3B3F45"/>
</g>
<defs>
<clipPath id="clip0_1246_758">
<rect width="68" height="41" fill="white"/>
</clipPath>
</defs>
</svg>
