<svg width="62" height="37" viewBox="0 0 62 37" fill="none" xmlns="http://www.w3.org/2000/svg">
<path d="M30.6416 37C30.4381 37 30.2347 36.9434 30.0506 36.849L28.1906 35.7729C27.9097 35.6219 28.0453 35.5653 28.1422 35.5369C28.5103 35.4142 28.5878 35.3859 28.985 35.1594C29.0238 35.1405 29.0819 35.1499 29.1206 35.1688L30.5544 35.9995C30.6028 36.0278 30.6803 36.0278 30.7288 35.9995L36.3281 32.8468C36.3766 32.8185 36.4153 32.7618 36.4153 32.6958V26.3999C36.4153 26.3338 36.3862 26.2772 36.3281 26.2488L30.7288 23.1056C30.6803 23.0773 30.6125 23.0773 30.5544 23.1056L24.955 26.2488C24.8969 26.2772 24.8678 26.3432 24.8678 26.3999V32.6958C24.8678 32.7524 24.9066 32.809 24.955 32.8373L26.4856 33.6963C27.3187 34.1022 27.8322 33.6208 27.8322 33.1488V26.9285C27.8322 26.8435 27.9 26.768 27.9969 26.768H28.7041C28.7912 26.768 28.8687 26.8341 28.8687 26.9285V33.1488C28.8687 34.2343 28.2681 34.8479 27.2122 34.8479C26.8925 34.8479 26.6309 34.8479 25.9237 34.5081L24.4512 33.6869C24.0928 33.4792 23.8603 33.1016 23.8603 32.6958V26.3999C23.8603 25.994 24.0831 25.607 24.4512 25.4088L30.0506 22.2561C30.4091 22.0579 30.8741 22.0579 31.2228 22.2561L36.8222 25.4088C37.1806 25.6164 37.4131 25.994 37.4131 26.3999V32.6958C37.4131 33.1016 37.1903 33.4886 36.8222 33.6869L31.2228 36.8395C31.0581 36.9434 30.8547 37 30.6416 37ZM35.1656 30.7891C35.1656 29.6092 34.3519 29.2977 32.6275 29.0711C30.8837 28.8446 30.7094 28.7313 30.7094 28.3349C30.7094 28.0045 30.8547 27.5703 32.1431 27.5703C33.2959 27.5703 33.7222 27.8157 33.8966 28.5709C33.9159 28.6464 33.9741 28.6936 34.0516 28.6936H34.7781C34.8266 28.6936 34.8653 28.6747 34.8944 28.6464C34.9234 28.6086 34.9428 28.5709 34.9331 28.5237C34.8169 27.2211 33.9353 26.617 32.1431 26.617C30.5447 26.617 29.5953 27.2777 29.5953 28.3726C29.5953 29.5714 30.5447 29.8923 32.0753 30.0434C33.9062 30.2227 34.0516 30.4776 34.0516 30.8268C34.0516 31.4404 33.5478 31.6952 32.3659 31.6952C30.8837 31.6952 30.5544 31.3365 30.4478 30.6192C30.4381 30.5436 30.3703 30.487 30.2831 30.487H29.5566C29.4694 30.487 29.3919 30.5531 29.3919 30.6475C29.3919 31.5631 29.9053 32.658 32.3563 32.658C34.1484 32.658 35.1656 31.9784 35.1656 30.7891ZM40.4453 26.0601C40.4453 26.6358 39.9609 27.1078 39.37 27.1078C38.7791 27.1078 38.2947 26.6358 38.2947 26.0601C38.2947 25.4654 38.7984 25.0123 39.37 25.0123C39.9512 25.0029 40.4453 25.4654 40.4453 26.0601ZM40.2709 26.0601C40.2709 25.5692 39.8641 25.1822 39.3603 25.1822C38.8662 25.1822 38.4594 25.5692 38.4594 26.0601C38.4594 26.5509 38.8662 26.9473 39.3603 26.9473C39.8641 26.9379 40.2709 26.5415 40.2709 26.0601ZM39.835 26.6453H39.5831C39.5734 26.5886 39.5347 26.2866 39.5347 26.2772C39.5153 26.2111 39.4959 26.1733 39.4087 26.1733H39.1956V26.6453H38.9631V25.4654H39.3797C39.525 25.4654 39.8059 25.4654 39.8059 25.7769C39.8059 25.994 39.6606 26.0412 39.5734 26.0695C39.7381 26.0789 39.7478 26.1828 39.7769 26.3338C39.7866 26.4282 39.8059 26.5886 39.835 26.6453ZM39.5637 25.8146C39.5637 25.6542 39.4475 25.6542 39.3894 25.6542H39.1956V25.9845H39.3797C39.5347 25.9845 39.5637 25.8807 39.5637 25.8146ZM13.3009 12.3639C13.3009 12.109 13.1653 11.8825 12.9425 11.7598L7.00406 8.42777C6.90719 8.37113 6.79094 8.34282 6.67469 8.33338H6.61656C6.50031 8.33338 6.39375 8.37113 6.28719 8.42777L0.358438 11.7598C0.135625 11.8825 0 12.1185 0 12.3639L0.0096875 21.3311C0.0096875 21.4538 0.0775 21.567 0.184062 21.6331C0.290625 21.6992 0.42625 21.6992 0.5425 21.6331L4.06875 19.6603C4.29156 19.5282 4.42719 19.3016 4.42719 19.0562V14.8653C4.42719 14.6198 4.56281 14.3839 4.78562 14.2611L6.28719 13.4211C6.40344 13.355 6.51969 13.3267 6.64562 13.3267C6.77156 13.3267 6.8975 13.355 7.00406 13.4211L8.50562 14.2611C8.72844 14.3839 8.86406 14.6198 8.86406 14.8653V19.0562C8.86406 19.3016 8.99969 19.5376 9.2225 19.6603L12.7487 21.6331C12.8553 21.6992 13.0006 21.6992 13.1072 21.6331C13.2137 21.5765 13.2816 21.4538 13.2816 21.3311L13.3009 12.3639ZM45.7734 2.57551V19.2261C45.7734 19.4715 45.6378 19.7075 45.415 19.8302L39.4766 23.1717C39.2537 23.2944 38.9825 23.2944 38.7597 23.1717L32.8212 19.8302C32.5984 19.7075 32.4628 19.4715 32.4628 19.2261V12.5432C32.4628 12.2978 32.5984 12.0618 32.8212 11.9391L38.7597 8.59767C38.9825 8.47496 39.2537 8.47496 39.4766 8.59767L40.9587 9.42832C41.1234 9.52271 41.3366 9.4 41.3366 9.22065V0.347877C41.3366 0.0835813 41.6272 -0.086323 41.8694 0.0458248L45.4053 1.97141C45.6281 2.08468 45.7734 2.32065 45.7734 2.57551ZM41.3172 14.7425C41.3172 14.6765 41.2784 14.6198 41.23 14.5915L39.1956 13.4399C39.1375 13.4116 39.0697 13.4116 39.0116 13.4399L36.9772 14.5915C36.9191 14.6198 36.89 14.6765 36.89 14.7425V17.0363C36.89 17.1023 36.9287 17.159 36.9772 17.1873L39.0116 18.3294C39.0697 18.3577 39.1375 18.3577 39.1859 18.3294L41.2203 17.1873C41.2784 17.159 41.3075 17.1023 41.3075 17.0363V14.7425H41.3172ZM61.6416 14.6765C61.8644 14.5538 62 14.3178 62 14.0724V12.4583C62 12.2129 61.8644 11.9769 61.6416 11.8542L55.7419 8.51272C55.5191 8.39001 55.2478 8.39001 55.025 8.51272L49.0866 11.8542C48.8638 11.9769 48.7281 12.2129 48.7281 12.4583V19.1412C48.7281 19.396 48.8638 19.6226 49.0866 19.7453L54.9862 23.0207C55.1994 23.1434 55.4706 23.1434 55.6934 23.0207L59.2584 21.0856C59.5006 20.9535 59.5006 20.6137 59.2584 20.4815L53.2812 17.1401C53.165 17.074 53.0972 16.9607 53.0972 16.838V14.7425C53.0972 14.6198 53.165 14.5066 53.2812 14.4405L55.1413 13.3927C55.2478 13.3267 55.3931 13.3267 55.4997 13.3927L57.3597 14.4405C57.4662 14.5066 57.5437 14.6198 57.5437 14.7425V16.385C57.5437 16.6492 57.8441 16.8192 58.0862 16.687L61.6416 14.6765ZM54.1531 15.0068C54.1144 15.0352 54.0853 15.0729 54.0853 15.1201V16.4038C54.0853 16.451 54.1144 16.4982 54.1531 16.5171L55.2962 17.159C55.335 17.1873 55.3931 17.1873 55.4319 17.159L56.575 16.5171C56.6137 16.4888 56.6428 16.451 56.6428 16.4038V15.1201C56.6428 15.0729 56.6137 15.0257 56.575 15.0068L55.4319 14.365C55.3931 14.3367 55.335 14.3367 55.2962 14.365L54.1531 15.0068ZM29.5275 19.1129V12.4677C29.5275 12.2223 29.3725 11.9863 29.1497 11.8636L23.2306 8.54104C23.0272 8.42777 22.7462 8.40889 22.5137 8.54104L16.5947 11.8636C16.3719 11.9863 16.2169 12.2129 16.2169 12.4677V19.1129C16.2169 19.3772 16.4009 19.6037 16.6044 19.717L22.5331 23.0395C22.7656 23.1717 23.0369 23.1622 23.25 23.0395L29.1594 19.717C29.3337 19.6226 29.4597 19.4621 29.5081 19.2733C29.5178 19.2261 29.5275 19.1695 29.5275 19.1129ZM22.3297 7.32339L22.2522 7.37059H22.3587L22.3297 7.32339ZM29.7116 19.6131L29.6728 19.5471V19.632L29.7116 19.6131Z" fill="#3B3F45"/>
</svg>
