<svg width="79" height="39" viewBox="0 0 79 39" fill="none" xmlns="http://www.w3.org/2000/svg">
<path d="M20.2227 14.9936H14.1594C13.8533 14.9936 13.6111 14.7466 13.6111 14.4521V8.21212C13.6111 7.74802 13.2332 7.37492 12.7631 7.37492H10.5972C10.1272 7.37492 9.74928 7.74802 9.74928 8.21212V14.4105C9.74928 14.7342 9.48594 14.9942 9.15809 14.9942L7.16993 15.0007C7.0921 15.0014 7.01491 14.9868 6.94287 14.9577C6.87082 14.9286 6.80536 14.8856 6.75033 14.8313C6.69529 14.777 6.65178 14.7123 6.62232 14.6412C6.59286 14.5701 6.57804 14.4939 6.57874 14.417L6.59323 8.21146C6.59323 7.74736 6.21535 7.37427 5.7453 7.37427H3.57937C3.10932 7.37427 2.73145 7.74736 2.73145 8.21146V25.6809C2.73197 25.8784 2.81169 26.0678 2.95319 26.2075C3.09468 26.3472 3.28645 26.4259 3.48656 26.4264H20.2253C20.4254 26.4259 20.6172 26.3472 20.7587 26.2075C20.9002 26.0678 20.9799 25.8784 20.9804 25.6809V15.7398C20.9811 15.6417 20.9619 15.5445 20.9242 15.4537C20.8865 15.363 20.8309 15.2806 20.7606 15.2112C20.6904 15.1419 20.6069 15.087 20.515 15.0497C20.4231 15.0125 20.3247 14.9936 20.2253 14.9942L20.2227 14.9936ZM17.3787 21.5508C17.3787 22.0857 16.9376 22.5219 16.3952 22.5219H14.6848C14.143 22.5219 13.7012 22.0864 13.7012 21.5508V19.8621C13.7012 19.3271 14.1423 18.891 14.6848 18.891H16.3952C16.937 18.891 17.3787 19.3265 17.3787 19.8621V21.5508Z" fill="#3B3F45"/>
<path d="M58.3917 24.956C58.8427 25.1276 59.1442 24.9235 59.1442 24.4458V15.4303C59.3022 15.5323 59.3055 15.6591 59.3384 15.765L62.1469 24.5894C62.2337 24.8624 62.3378 25.0054 62.6393 24.969C62.929 24.932 63.2555 25.0834 63.3918 24.618L64.6077 20.7349L66.3615 15.2099C66.3818 15.2148 66.4025 15.2176 66.4234 15.2184V15.6961L66.4148 24.5205C66.4148 24.8637 66.4938 24.9781 66.8612 24.9859C67.2825 24.9898 67.32 24.7942 67.3154 24.4633L67.3115 15.1033C67.3115 14.0503 67.3115 14.062 66.2318 14.0458C65.8928 14.0419 65.7229 14.1277 65.6196 14.4663L62.8236 23.4253C62.659 23.3473 62.6623 23.2251 62.6373 23.1393L60.1514 15.1521C59.8091 14.0341 59.8223 14.0373 58.6458 14.0406C58.3193 14.0406 58.2403 14.155 58.2442 14.4533L58.2528 24.527M74.4478 24.1799C75.3497 23.1549 75.6637 22.0362 75.7842 20.848C75.9455 19.2308 75.908 17.6383 75.3234 16.0952C74.5498 14.0802 72.428 13.2651 70.613 14.311C69.6321 14.8745 69.1647 15.7975 68.875 16.8304C68.5458 17.99 68.5195 19.1704 68.59 20.3664C68.636 21.0853 68.7387 21.7873 68.9586 22.4691C69.5294 24.2176 70.6005 24.9807 72.4531 24.9807L76.2168 24.9937C76.6381 25.0022 76.6677 24.8221 76.671 24.4913C76.6749 24.1481 76.5591 24.046 76.2246 24.0792L74.4537 24.1812L74.4478 24.1799ZM27.7259 19.6026C28.032 19.4557 28.3006 19.3699 28.5449 19.2107C29.4665 18.6224 29.8892 17.4102 29.6114 16.1479C29.3632 15.0208 28.5646 14.3305 27.2953 14.1348C26.3651 13.9918 25.4217 14.0978 24.4908 14.049C24.1143 14.0295 24.0103 14.1348 24.0103 14.504V24.488C24.0103 24.852 24.0932 24.9742 24.4711 24.9658C24.8266 24.9573 24.9675 24.9008 24.9583 24.5108L24.9418 20.3898C24.9379 20.12 25.0076 20.0141 25.2933 20.0342C25.6074 20.0589 25.9254 20.0381 26.2446 20.0381C27.3533 20.0466 27.9234 20.4509 28.1999 21.5201L28.8161 24.358C28.899 24.8273 29.0643 25.0035 29.5646 24.9664C29.8958 24.9417 29.8938 24.8319 29.8378 24.5907L29.2631 21.7957C29.0768 20.8597 28.8246 19.9582 27.716 19.6072L27.7259 19.6026ZM44.5088 18.5002V18.0673L44.5167 14.4858C44.5206 14.1712 44.4627 14.0406 44.0986 14.0451C43.7563 14.049 43.6687 14.1472 43.6727 14.478L43.6806 21.6891C43.6834 22.003 43.7027 22.3165 43.7385 22.6284C43.8998 24.0649 44.6773 24.9554 45.9097 25.1276C47.1586 25.3031 48.3416 24.6336 48.7761 23.3557C49.3265 21.7502 49.314 20.1213 48.5444 18.5698C48.1145 17.7001 47.3738 17.2139 46.3521 17.2795C45.5206 17.3283 44.9828 17.8145 44.5075 18.5002H44.5088ZM37.9123 18.6842L37.9202 14.4943C37.9241 14.1888 37.8827 14.0458 37.5107 14.0458C37.142 14.0458 37.1012 14.1758 37.1012 14.4865L37.1052 22.0915C37.1052 22.5569 37.1842 23.0145 37.3369 23.4513C37.6266 24.2768 38.1434 24.8761 39.0532 25.0685C40.4304 25.3584 41.6878 24.7175 42.1717 23.3817C42.726 21.8542 42.6806 20.3027 42.0808 18.7927C41.8162 18.131 41.3369 17.6331 40.6457 17.3796C39.6035 16.9961 38.6904 17.4082 37.9116 18.6783L37.9123 18.6842ZM35.063 23.9147L35.0591 24.5712C35.0176 24.8962 35.1539 24.9632 35.4646 24.9716C35.8122 24.9794 35.8491 24.8371 35.8451 24.5511L35.8366 19.4466C35.8366 19.2549 35.8168 19.0586 35.7786 18.8707C35.5759 17.8457 34.9057 17.3029 33.8017 17.2652C32.2835 17.2119 31.3408 17.7137 31.0676 18.7394C31.0261 18.8987 30.8734 19.1275 31.1295 19.2419C31.4481 19.3849 31.9445 19.2172 32.0268 18.9643C32.1506 18.5886 32.3691 18.3111 32.751 18.1557C33.9215 17.6812 34.9597 18.3182 35.0341 19.5565L35.0591 20.0017C35.0788 20.6673 35.0788 20.6582 34.4139 20.7083C33.4922 20.7778 32.5732 20.8643 31.7714 21.3862C30.9234 21.9413 30.6219 23.0398 31.0274 24.0577C31.354 24.8787 32.198 25.2622 33.244 25.0867C33.9722 24.9723 34.5252 24.5927 35.063 23.9147ZM54.6155 15.2242C54.0447 15.4452 53.6807 15.7429 53.8091 16.3637C53.8288 16.4657 53.813 16.5717 53.813 16.6783C53.813 17.4297 53.813 17.442 53.0691 17.4297C52.788 17.4258 52.6346 17.4492 52.6346 17.8015C52.6346 18.1362 52.7294 18.2708 53.0691 18.2175C53.156 18.2045 53.2508 18.2305 53.3423 18.2136C53.7636 18.1356 53.8295 18.3319 53.8262 18.7037L53.8347 23.4448C53.8545 24.5498 54.422 25.0782 55.5266 25.1348C55.7663 25.1478 56.0072 25.1101 56.2508 25.1062C56.7801 25.0977 56.582 24.7058 56.5866 24.4562C56.5951 24.0766 56.318 24.2846 56.1685 24.3132C55.2172 24.4724 54.6504 24.1052 54.6386 23.2309L54.6221 18.4898C54.6221 18.2734 54.7011 18.2038 54.9118 18.2123L56.2725 18.2201C56.6412 18.2396 56.5866 18.016 56.6037 17.7872C56.6201 17.5259 56.5497 17.4076 56.2561 17.4232C55.8631 17.4479 55.47 17.4069 55.0711 17.4362C54.7287 17.4609 54.5872 17.3751 54.6122 17.0033V15.2223L54.6155 15.2242ZM51.1988 21.1945L51.2073 17.793C51.2113 17.4992 51.1329 17.405 50.8308 17.4212C50.5661 17.4342 50.3884 17.4173 50.3923 17.7852V24.592C50.3884 24.9391 50.5371 24.9677 50.8222 24.9716C51.1158 24.9755 51.2067 24.8982 51.2027 24.5998L51.1988 21.1945ZM51.3805 14.7387C51.3805 14.0562 51.3805 14.0887 50.7485 14.0484C50.3061 14.0198 50.1902 14.1589 50.2106 14.5833C50.2481 15.4043 50.2192 15.3919 51.0625 15.3796C51.3271 15.3757 51.4101 15.2899 51.3811 15.0481C51.3726 14.946 51.3811 14.8401 51.3811 14.738L51.3805 14.7387Z" fill="#141414"/>
<path d="M66.3612 15.2087L64.6074 20.7337L63.3914 24.6168C63.2552 25.0822 62.9326 24.9314 62.639 24.9678C62.3361 25.0049 62.2334 24.8619 62.1465 24.5882L59.3381 15.7638C59.3052 15.6579 59.2966 15.5311 59.1439 15.4291V24.4446C59.1439 24.8281 58.9497 25.0328 58.6435 25.0166C58.3144 25.0166 58.2551 24.6786 58.2551 24.5356L58.2512 18.3573L58.2472 14.4619C58.2433 14.1596 58.3177 14.0491 58.6488 14.0491C59.8318 14.0452 59.8108 14.0361 60.1544 15.1606L62.6403 23.1478C62.6692 23.2375 62.66 23.3558 62.8266 23.4338L63.1821 22.2866L65.6219 14.4749C65.7252 14.1369 65.8951 14.0504 66.2341 14.0543C67.3138 14.0706 67.3138 14.0582 67.3138 15.1119L67.3177 24.4719C67.3177 24.8034 67.2848 24.9919 66.8635 24.9945C66.4948 24.9906 66.4125 24.8723 66.4171 24.5291L66.4257 15.2276C66.4007 15.2198 66.3842 15.2146 66.3638 15.2113L66.3612 15.2087ZM74.4574 24.18L76.2283 24.0695C76.564 24.037 76.6825 24.1391 76.6746 24.4823C76.6707 24.8138 76.6417 24.9925 76.2204 24.9847L72.4567 24.9717C70.6041 24.9717 69.5324 24.208 68.9623 22.4601C68.7384 21.7776 68.6357 21.0756 68.5936 20.3574C68.5192 19.1653 68.5521 17.981 68.8786 16.8214C69.1683 15.7924 69.6397 14.8649 70.6166 14.302C72.4323 13.2568 74.5535 14.0654 75.327 16.0862C75.9182 17.63 75.9557 19.2257 75.7878 20.839C75.668 22.035 75.3534 23.1543 74.4514 24.18H74.4574ZM74.7885 19.4513C74.8346 18.5042 74.7595 17.5117 74.4284 16.5523C74.1716 15.821 73.7668 15.2172 72.9801 14.9468C71.7845 14.5386 70.5403 15.1385 70.0729 16.3885C69.564 17.7444 69.5475 19.1575 69.6515 20.5745C69.7009 21.257 69.7924 21.9343 70.0571 22.5797C70.3507 23.3025 70.8431 23.8147 71.6371 23.9772C72.9814 24.2346 73.9741 23.6548 74.433 22.3685C74.7595 21.4416 74.8175 20.4822 74.7885 19.4532V19.4513Z" fill="#57615B"/>
<path d="M27.729 19.6027C28.8376 19.9537 29.0852 20.8572 29.28 21.7997L29.8548 24.5947C29.9041 24.8352 29.9127 24.9457 29.5816 24.9704C29.0852 25.0114 28.9166 24.8359 28.833 24.362L28.2168 21.5241C27.9403 20.4542 27.3689 20.046 26.2616 20.0421C25.943 20.0421 25.625 20.0584 25.3103 20.0382C25.0252 20.0187 24.9548 20.1201 24.9587 20.3938L24.9752 24.5148C24.9838 24.9067 24.8435 24.9678 24.488 24.9698C24.1036 24.9776 24.0167 24.8554 24.0272 24.492V14.508C24.0272 14.1323 24.1306 14.027 24.5078 14.053C25.4426 14.1018 26.3814 13.9958 27.3123 14.1388C28.5776 14.3351 29.3762 15.0248 29.6283 16.1519C29.9048 17.4129 29.4835 18.6264 28.5618 19.2147C28.3182 19.3616 28.045 19.4513 27.7389 19.5982L27.729 19.6027ZM24.966 17.0385L24.9699 18.8273C24.9699 18.9618 24.908 19.1523 25.1562 19.1497C25.9877 19.1659 26.8231 19.1744 27.5921 18.7941C28.4189 18.3859 28.8692 17.4792 28.7178 16.5484C28.573 15.6663 28.0351 15.1886 27.022 15.017C26.4347 14.9195 25.8475 14.9559 25.2603 14.9351C25.0121 14.9266 24.9541 15.0209 24.9574 15.2451L24.9653 17.0378L24.966 17.0385ZM44.5185 18.501C44.9938 17.8185 45.5323 17.329 46.3671 17.2757C47.3888 17.2107 48.1288 17.6963 48.5593 18.566C49.3283 20.1175 49.3408 21.7471 48.7911 23.3519C48.3526 24.6298 47.1742 25.3 45.9247 25.1238C44.6923 24.9483 43.9187 24.0624 43.7535 22.6246C43.7155 22.3129 43.6962 21.9993 43.6956 21.6853L43.687 14.4742C43.687 14.1427 43.77 14.0452 44.1129 14.0413C44.4731 14.0374 44.5343 14.1681 44.531 14.482L44.5224 18.0635L44.5185 18.5003V18.501ZM48.1867 21.3103C48.1828 20.2404 47.98 19.3382 47.6489 18.8078C47.0741 17.8932 46.1808 17.7873 45.4276 18.5588C45.2828 18.7057 45.138 18.8734 45.0511 19.0567C44.3809 20.4815 44.319 21.9479 44.9148 23.3935C45.3493 24.4465 46.5145 24.6636 47.3309 23.9246C47.6041 23.6756 47.7851 23.3695 47.9102 23.0302C48.1255 22.4465 48.1749 21.8381 48.1867 21.3109V21.3103ZM37.922 18.6843C38.7034 17.4142 39.6139 17.006 40.656 17.3856C41.3473 17.6391 41.8266 18.137 42.0912 18.7987C42.6903 20.3093 42.7364 21.8615 42.1821 23.3877C41.6982 24.7228 40.4408 25.3598 39.0635 25.0744C38.1577 24.8827 37.6369 24.2814 37.3473 23.4572C37.1945 23.0204 37.1116 22.5628 37.1155 22.0974L37.1116 14.4924C37.1116 14.1824 37.153 14.0517 37.5211 14.0517C37.8891 14.0517 37.9305 14.1947 37.9305 14.5002L37.9226 18.6901L37.922 18.6843ZM41.5777 21.2193C41.5738 20.1903 41.396 19.3733 41.051 18.8013C40.5046 17.9108 39.6027 17.797 38.8588 18.5315C38.2841 19.1035 38.082 19.8302 37.9944 20.5985C37.8825 21.6028 37.8871 22.5992 38.3828 23.5222C38.8088 24.3152 39.6113 24.5635 40.3762 24.1787C40.8147 23.9577 41.0919 23.5905 41.2736 23.1537C41.5303 22.5297 41.5876 21.8758 41.583 21.218L41.5777 21.2193ZM35.0721 23.9142C34.5342 24.5882 33.9845 24.9717 33.2603 25.0907C32.2136 25.2662 31.3709 24.8827 31.0437 24.0617C30.6382 23.0451 30.9404 21.9466 31.7876 21.3902C32.5855 20.8676 33.5079 20.7779 34.4302 20.7123C35.0951 20.6635 35.0951 20.6713 35.0753 20.0057L35.0503 19.5605C34.9759 18.3229 33.9312 17.6859 32.7672 18.1597C32.3907 18.3105 32.1681 18.5926 32.0431 18.9683C31.9601 19.2283 31.4637 19.3889 31.1458 19.2459C30.889 19.1315 31.0424 18.9027 31.0839 18.7434C31.3571 17.7184 32.2998 17.2159 33.8179 17.2692C34.922 17.3063 35.5921 17.849 35.7949 18.8747C35.8324 19.0632 35.8528 19.2582 35.8528 19.4506L35.8607 24.5551C35.8607 24.8411 35.8278 24.9841 35.4802 24.9756C35.1708 24.9678 35.0339 24.8937 35.0747 24.5752C35.0879 24.3997 35.0707 24.2242 35.0707 23.9135L35.0721 23.9142ZM34.3235 21.4682L33.4262 21.5657C32.864 21.6717 32.3512 21.8881 32.049 22.4029C31.7883 22.8436 31.7198 23.3051 32.0358 23.7504C32.3334 24.1748 32.7764 24.2197 33.2472 24.1339C33.7107 24.0533 34.1349 23.8255 34.4551 23.485C34.7754 23.1444 34.9742 22.71 35.0214 22.2476C35.1122 21.4598 35.1122 21.4546 34.3222 21.4676L34.3235 21.4682ZM54.618 15.225L54.6094 17.0092C54.5897 17.381 54.7253 17.4668 55.0683 17.4421C55.4567 17.4135 55.8543 17.4551 56.2533 17.4291C56.5469 17.4129 56.6173 17.5312 56.6009 17.7931C56.5844 18.018 56.6384 18.2462 56.2697 18.226C55.8188 18.2013 55.3639 18.2299 54.909 18.2182C54.6983 18.2143 54.6193 18.2793 54.6193 18.4958L54.6357 23.2369C54.6522 24.1105 55.2151 24.4719 56.1657 24.3191C56.3184 24.2944 56.5916 24.0864 56.5837 24.4621C56.5798 24.7111 56.778 25.103 56.248 25.1121L55.5238 25.1407C54.4198 25.0835 53.8569 24.5492 53.8319 23.4507L53.8234 18.7096C53.8273 18.3378 53.7615 18.1376 53.3395 18.2195C53.2526 18.2358 53.1578 18.2117 53.0663 18.2234C52.7272 18.2767 52.6364 18.1415 52.6318 17.8074C52.6318 17.4564 52.7845 17.4317 53.0663 17.4356C53.8102 17.4434 53.8102 17.4356 53.8102 16.6842C53.8102 16.5783 53.8267 16.4717 53.8062 16.3696C53.6864 15.7411 54.0498 15.4466 54.6213 15.2256C54.0505 15.4466 54.6213 15.8464 54.6213 15.2256L54.618 15.225ZM51.2012 21.1952L51.2098 24.5967C51.2137 24.8957 51.1189 24.9724 50.8293 24.9685C50.5442 24.9646 50.3994 24.936 50.3994 24.5889V17.7821C50.3954 17.4148 50.5732 17.4311 50.8378 17.4181C51.1407 17.4018 51.2183 17.4961 51.2144 17.7899L51.2012 21.1959V21.1952ZM51.3829 14.8415C51.3829 14.9435 51.3289 15.4824 51.0643 15.4869C50.2203 15.4999 50.2453 15.5064 50.2124 14.6907C50.2164 14.2578 50.3283 14.2006 50.7503 14.1557C51.379 14.2207 51.3829 14.1642 51.3829 14.8415Z" fill="#3B3F45"/>
<path d="M51.0253 15.3856H50.5644C50.3702 15.3856 50.2129 15.2296 50.2129 15.0385V14.3976C50.2129 14.2059 50.3709 14.0505 50.5644 14.0505H51.0253C51.2195 14.0505 51.3768 14.2065 51.3768 14.3976V15.0385C51.3768 15.2303 51.2188 15.3856 51.0253 15.3856Z" fill="#3B3F45"/>
</svg>
