<svg width="83" height="41" viewBox="0 0 83 41" fill="none" xmlns="http://www.w3.org/2000/svg">
<path d="M44.8189 16.2962C44.8189 16.8447 44.3629 17.3341 43.7683 17.3341C43.3123 17.3341 42.916 17.4517 42.5791 17.7062C42.2026 17.9414 41.9052 18.2741 41.6675 18.6461C41.1917 19.2728 40.9543 20.0168 40.8549 20.2907V24.0112C40.8549 24.5791 40.3595 25.0491 39.7649 25.0491C39.4869 25.0471 39.2209 24.9371 39.0243 24.7429C38.8277 24.5487 38.7164 24.2858 38.7144 24.0112V16.2962C38.7144 15.7283 39.1898 15.278 39.7649 15.278C40.3595 15.278 40.8549 15.7284 40.8549 16.2962V16.4333C40.9738 16.2962 41.131 16.1397 41.2712 16.0416C41.9253 15.611 42.7772 15.2583 43.7683 15.278C44.3629 15.278 44.8189 15.7284 44.8189 16.2962ZM44.2361 20.1539C44.256 17.4909 46.3568 15.2587 49.0718 15.2587C51.6483 15.2587 53.6881 17.158 53.8484 19.8013V19.8992C53.8484 19.9386 53.8484 20.0362 53.8285 20.0754C53.7671 20.5454 53.3527 20.8588 52.7978 20.8588H46.4967C46.5958 21.3092 46.8137 21.8182 47.1706 22.1512C47.5869 22.6213 48.3796 22.9734 49.0731 23.0322C49.7866 23.0908 50.6375 22.9147 51.1344 22.5428C51.5505 22.1118 52.3632 22.1708 52.6209 22.4822C52.8785 22.7549 53.0767 23.344 52.6209 23.7549C51.6496 24.6359 50.4803 25.0474 49.073 25.0474C46.3581 25.0282 44.2572 22.8155 44.2373 20.1525L44.2361 20.1539ZM46.3964 19.1945H52.0051C51.8069 18.4111 50.7961 17.2561 49.0718 17.1189C47.3873 17.1971 46.5565 18.3917 46.3963 19.1945H46.3964ZM63.9469 23.9919C63.9469 24.5598 63.4712 25.0495 62.8764 25.0495C62.3396 25.0495 61.9252 24.6775 61.8259 24.2075C61.0744 24.7166 60.1215 25.0495 59.1304 25.0495C56.4549 25.0495 54.3143 22.8173 54.3143 20.1739C54.3143 17.4912 56.4549 15.259 59.1304 15.259C60.1017 15.259 61.0529 15.5722 61.7861 16.0813V12.4003C61.7861 11.8324 62.2619 11.3427 62.8761 11.3427C63.4707 11.3427 63.9466 11.8321 63.9466 12.4003V23.9921L63.9469 23.9919ZM59.1309 17.3932C58.4174 17.3932 57.7633 17.6868 57.2681 18.196C56.7727 18.6854 56.4751 19.3902 56.4751 20.1736C56.4751 20.916 56.7724 21.6224 57.2681 22.112C57.7634 22.6211 58.4174 22.9151 59.1309 22.9151C59.864 22.9151 60.4984 22.6214 60.9938 22.112C61.4892 21.6226 61.7867 20.9176 61.7867 20.1736C61.7867 19.3902 61.4895 18.6857 60.9938 18.196C60.4984 17.6868 59.8641 17.3932 59.1309 17.3932ZM67.7183 12.8112C67.7183 13.3987 67.2624 13.8881 66.6477 13.8881C66.0531 13.8881 65.5775 13.3987 65.5775 12.8112V12.4C65.577 12.261 65.6042 12.1232 65.6578 11.9947C65.7114 11.8661 65.7902 11.7493 65.8897 11.651C65.9892 11.5527 66.1074 11.4748 66.2375 11.4219C66.3676 11.3689 66.507 11.342 66.6477 11.3425C67.2623 11.3425 67.7183 11.8126 67.7183 12.4002V12.8112ZM67.7183 16.3568V23.9934C67.7183 24.5809 67.2624 25.051 66.6477 25.051C66.507 25.0516 66.3676 25.0246 66.2375 24.9717C66.1074 24.9187 65.9892 24.8409 65.8897 24.7426C65.7902 24.6442 65.7114 24.5274 65.6578 24.3989C65.6042 24.2704 65.577 24.1326 65.5775 23.9936V16.3569C65.5775 15.7304 66.053 15.2799 66.6477 15.2799C67.2624 15.2799 67.7183 15.7303 67.7183 16.3568ZM69.0802 22.2479C69.4369 21.7782 70.1307 21.7194 70.5666 22.0914C71.0819 22.5223 71.9739 22.9723 72.7467 22.9529C73.2835 22.9529 73.7774 22.7769 74.0945 22.5809C74.3706 22.3461 74.4511 22.1503 74.4511 21.9935C74.4511 21.8956 74.4312 21.8565 74.3918 21.7976C74.3718 21.739 74.2927 21.6606 74.1341 21.5627C73.858 21.3668 73.2621 21.1514 72.5486 21.0142H72.5286C71.9141 20.8968 71.3195 20.7415 70.8043 20.5051C70.2675 20.2506 69.7921 19.8983 69.4368 19.3696C69.219 19.0172 69.0999 18.5863 69.0999 18.1363C69.0999 17.2355 69.6153 16.4718 70.2692 15.9822C70.9629 15.5125 71.7952 15.258 72.7072 15.258C74.0746 15.258 75.0457 15.9042 75.68 16.3348C76.1558 16.6482 76.2944 17.2944 75.9971 17.7837C75.6801 18.2537 75.0259 18.3908 74.5306 18.0564C73.8964 17.6453 73.3413 17.3318 72.7055 17.3318C72.2101 17.3318 71.7739 17.4885 71.5163 17.6843C71.2586 17.8606 71.1992 18.0369 71.1992 18.1347C71.1992 18.2129 71.1993 18.2326 71.2388 18.2913C71.2588 18.3304 71.3181 18.4087 71.4569 18.487C71.7146 18.6632 72.2299 18.8395 72.9038 18.957L72.9237 18.9767H72.9437C73.5978 19.094 74.212 19.2704 74.7868 19.5445C75.3236 19.7793 75.8574 20.1515 76.1941 20.6997C76.4319 21.0912 76.5707 21.5417 76.5707 21.9921C76.5707 22.9516 76.0339 23.7543 75.3219 24.2649C74.6085 24.7544 73.7165 25.0483 72.7454 25.0483C71.1994 25.0286 70.0103 24.324 69.2176 23.6974C68.7814 23.3449 68.7222 22.6791 69.0786 22.2482L69.0802 22.2479Z" fill="#3B3F45"/>
<g clip-path="url(#clip0_1246_652)">
<path d="M32.1151 26.8503C30.6387 27.6111 22.991 30.7176 21.3628 31.5559C19.7345 32.3943 18.8302 32.3863 17.5437 31.7791C16.2572 31.1719 8.11886 27.9242 6.65196 27.2314C5.91851 26.8851 5.53418 26.5938 5.53418 26.3184V23.5555C5.53418 23.5555 16.1303 21.2766 17.8415 20.6701C19.5526 20.0636 20.1445 20.0418 21.6011 20.5686C23.0578 21.0954 31.7616 22.6468 33.1999 23.1678V25.8924C33.1999 26.1655 32.8684 26.4721 32.1166 26.8517L32.1151 26.8503Z" fill="#26292E"/>
<path d="M32.1153 24.0868C30.6389 24.8476 22.9912 27.954 21.363 28.7924C19.7347 29.6308 18.8304 29.6228 17.5439 29.0156C16.2574 28.4083 8.11906 25.1606 6.65216 24.4679C5.18527 23.7752 5.15593 23.2991 6.59569 22.7419L17.8409 18.4406C19.5513 17.8348 20.144 17.8123 21.6006 18.3391C23.0572 18.8659 30.6587 21.8549 32.0963 22.3839C33.5338 22.9129 33.5903 23.3332 32.1139 24.094L32.1153 24.0868Z" fill="#3B3F45"/>
<path d="M32.1151 22.3447C30.6387 23.1055 22.991 26.2119 21.3628 27.0503C19.7345 27.8887 18.8302 27.8807 17.5437 27.2735C16.2572 26.6663 8.11886 23.4186 6.65196 22.7258C5.91851 22.3795 5.53418 22.0882 5.53418 21.8128V19.0499C5.53418 19.0499 16.1303 16.771 17.8415 16.1645C19.5526 15.558 20.1445 15.5362 21.6011 16.063C23.0578 16.5898 31.7616 18.1412 33.1999 18.6622V21.3867C33.1999 21.6599 32.8684 21.9664 32.1166 22.3461L32.1151 22.3447Z" fill="#26292E"/>
<path d="M32.1153 19.5819C30.6389 20.3427 22.9912 23.4492 21.363 24.2875C19.7347 25.1259 18.8304 25.1179 17.5439 24.5107C16.2574 23.9035 8.11906 20.6558 6.65216 19.963C5.18527 19.2703 5.15593 18.7942 6.59569 18.237L17.8409 13.9364C19.5513 13.3299 20.144 13.3082 21.6006 13.835C23.0572 14.3618 30.6587 17.3515 32.0977 17.8711C33.5368 18.3906 33.5918 18.8203 32.1153 19.5812V19.5819Z" fill="#3B3F45"/>
<path d="M32.1151 17.6726C30.6387 18.4334 22.991 21.5398 21.3628 22.3789C19.7345 23.218 18.8302 23.2093 17.5437 22.6021C16.2572 21.9949 8.11886 18.7472 6.65196 18.0544C5.91851 17.7081 5.53418 17.4168 5.53418 17.1414V14.377C5.53418 14.377 16.1303 12.0981 17.8415 11.4916C19.5526 10.8851 20.1445 10.8634 21.6011 11.3902C23.0578 11.917 31.7616 13.4684 33.1999 13.9894V16.7139C33.1999 16.9871 32.8684 17.2936 32.1166 17.6733L32.1151 17.6726Z" fill="#26292E"/>
<path d="M32.1153 14.9088C30.6389 15.6696 22.9912 18.7761 21.363 19.6144C19.7347 20.4528 18.8304 20.4448 17.5439 19.8376C16.2574 19.2304 8.11906 15.9827 6.65216 15.2899C5.18527 14.5972 5.15593 14.1211 6.59569 13.5639L17.8409 9.26334C19.5513 8.65684 20.144 8.6351 21.6006 9.1619C23.0572 9.68869 30.6587 12.6784 32.0977 13.198C33.5368 13.7175 33.5918 14.1472 32.1153 14.9081V14.9088Z" fill="#3B3F45"/>
<path d="M20.0577 13.7697L19.1908 12.3459L16.4228 12.0995L18.4882 11.3633L17.8684 10.2329L19.8018 10.9793L21.6251 10.3894L21.1322 11.5575L22.9908 12.2459L20.5939 12.4923L20.0577 13.7697ZM15.4399 16.6044L21.8503 15.632L19.914 18.4377L15.4399 16.6044Z" fill="#26282C"/>
<path d="M13.7118 15.5821C15.6043 15.5821 17.1385 14.9945 17.1385 14.2698C17.1385 13.545 15.6043 12.9575 13.7118 12.9575C11.8193 12.9575 10.2852 13.545 10.2852 14.2698C10.2852 14.9945 11.8193 15.5821 13.7118 15.5821Z" fill="#26282C"/>
<path d="M29.6186 14.0785L25.8267 15.5582L25.8237 12.5967L29.6186 14.0785Z" fill="#26282C"/>
<path d="M25.8277 15.5579L25.4169 15.7174L21.6279 14.2377L25.8255 12.5972L25.8277 15.5579Z" fill="#42454A"/>
</g>
<defs>
<clipPath id="clip0_1246_652">
<rect width="27.6667" height="27.3333" fill="white" transform="translate(5.5332 6.83325)"/>
</clipPath>
</defs>
</svg>
