<svg width="72" height="35" viewBox="0 0 72 35" fill="none" xmlns="http://www.w3.org/2000/svg">
<path d="M23.5021 7.73799C23.1879 8.47068 22.7855 9.16462 22.3033 9.80532C19.4365 7.01932 15.2503 5.94773 11.3443 7.00532C7.43834 8.0629 4.41434 11.0636 3.43034 14.8867C2.44634 18.7099 3.65174 22.7501 6.58814 25.4684L7.00394 25.8254C8.59108 27.125 10.517 27.9725 12.5687 28.2742C14.6205 28.5759 16.7181 28.3201 18.6295 27.5349C20.541 26.7497 22.1919 25.4659 23.3995 23.8253C24.6072 22.1848 25.3247 20.2514 25.4725 18.2392C25.7785 15.4537 24.9385 11.9292 23.5021 7.73915V7.73799ZM8.18834 25.5308C7.94354 25.8248 7.54034 25.9467 7.16714 25.84C6.79394 25.7332 6.52394 25.4171 6.48314 25.0408C6.44234 24.6646 6.63914 24.3017 6.98114 24.1209C7.32314 23.9401 7.74314 23.9786 8.04554 24.2166C8.45774 24.5415 8.52134 25.1301 8.18714 25.5314L8.18834 25.5308ZM23.4547 22.2548C20.6779 25.8511 14.7487 24.6383 10.9465 24.8122C10.9465 24.8122 10.2727 24.8507 9.59414 24.9592C9.59414 24.9592 9.84974 24.853 10.1773 24.7334C12.8473 23.8292 14.1091 23.656 15.7309 22.8446C18.7849 21.3355 21.8047 18.0303 22.4329 14.5945C21.2713 17.8997 17.7439 20.7417 14.5327 21.8961C12.3319 22.6847 8.35634 23.4524 8.35634 23.4524L8.19614 23.369C5.49014 22.0909 5.40614 16.3952 10.3201 14.5583C12.4801 13.7516 14.5351 14.1943 16.8613 13.6542C19.3453 13.0802 22.2193 11.2707 23.3893 8.9099C24.6973 12.687 26.2729 18.5932 23.4475 22.2566L23.4547 22.2548Z" fill="#3B3F45"/>
<path d="M27.874 21.0628C27.7624 20.9975 27.6711 20.904 27.6097 20.7924C27.5483 20.6807 27.5191 20.555 27.5252 20.4285C27.5241 20.331 27.543 20.2342 27.5809 20.1439C27.6188 20.0535 27.675 19.9715 27.746 19.9026C27.817 19.8337 27.9015 19.7793 27.9945 19.7426C28.0875 19.706 28.1871 19.6878 28.2875 19.6891C28.4288 19.6899 28.5676 19.7261 28.6903 19.7943C29.3832 20.2703 30.2047 20.5381 31.0528 20.5643C31.8605 20.5643 32.3261 20.2249 32.3261 19.6991V19.6701C32.3261 19.0512 31.4532 18.8389 30.4924 18.552C29.2818 18.2126 27.9294 17.7361 27.9294 16.2113V16.1807C27.9294 14.6692 29.2188 13.7514 30.8501 13.7514C31.7461 13.7677 32.6252 13.9909 33.4149 14.4027C33.5492 14.4661 33.6626 14.5649 33.7422 14.6878C33.8218 14.8108 33.8643 14.9529 33.8649 15.0982C33.8657 15.1968 33.846 15.2946 33.807 15.3858C33.7681 15.4769 33.7107 15.5595 33.6383 15.6286C33.5659 15.6977 33.4799 15.752 33.3855 15.7882C33.2911 15.8244 33.1901 15.8417 33.0887 15.8392C32.9586 15.8415 32.8302 15.8099 32.7169 15.7477C32.0488 15.4083 31.3649 15.2033 30.7978 15.2033C30.0687 15.2033 29.6477 15.5427 29.6477 15.9887V16.0193C29.6477 16.6083 30.5376 16.8505 31.497 17.1524C32.694 17.5184 34.0443 18.0429 34.0443 19.4778V19.5084C34.0443 21.1843 32.708 22.0142 30.9997 22.0142C29.8833 22.0067 28.7947 21.6753 27.8733 21.0625L27.874 21.0628ZM34.7539 14.6749C34.7513 14.5547 34.7735 14.4352 34.8191 14.3234C34.8647 14.2116 34.9328 14.1099 35.0195 14.024C35.1061 13.9382 35.2095 13.8701 35.3236 13.8237C35.4377 13.7773 35.5602 13.7535 35.6838 13.7538C35.8085 13.753 35.932 13.7764 36.0473 13.8224C36.1625 13.8685 36.2673 13.9363 36.3554 14.022C36.4435 14.1076 36.5133 14.2095 36.5606 14.3215C36.608 14.4336 36.632 14.5537 36.6313 14.6749V15.2279C37.2371 14.3967 38.0914 13.7318 39.4226 13.7318C41.3418 13.7318 43.2277 15.211 43.2277 17.8705V17.9011C43.2277 20.5433 41.3623 22.0382 39.4226 22.0382C38.0535 22.0382 37.1978 21.3733 36.6313 20.6339V23.4491C36.6313 23.6916 36.5322 23.9242 36.3558 24.0956C36.1795 24.2671 35.9403 24.3634 35.6909 24.3634C35.4414 24.3634 35.2022 24.2671 35.0259 24.0956C34.8495 23.9242 34.7504 23.6916 34.7504 23.4491L34.7539 14.6749ZM41.3257 17.8978V17.8672C41.3257 16.3271 40.2526 15.3228 38.979 15.3228C37.7054 15.3228 36.5871 16.3544 36.5871 17.8672V17.8978C36.5871 19.4242 37.7054 20.4422 38.979 20.4422C40.2526 20.4422 41.3257 19.4685 41.3257 17.8931V17.8978ZM43.9475 14.6765C43.945 14.5562 43.9672 14.4365 44.0129 14.3247C44.0587 14.2128 44.1269 14.1109 44.2138 14.0251C44.3006 13.9393 44.4042 13.8712 44.5185 13.8249C44.6328 13.7786 44.7554 13.7549 44.8792 13.7554C45.0039 13.7545 45.1276 13.7777 45.2429 13.8236C45.3583 13.8696 45.4631 13.9374 45.5513 14.0231C45.6395 14.1089 45.7092 14.2108 45.7565 14.3229C45.8038 14.4351 45.8276 14.5553 45.8267 14.6765V15.1158C45.9208 14.4369 47.0705 13.7587 47.8924 13.7587C48.017 13.7502 48.142 13.7678 48.259 13.8103C48.3761 13.8528 48.4823 13.9192 48.5707 14.0051C48.659 14.091 48.7273 14.1943 48.771 14.3081C48.8148 14.4218 48.8328 14.5434 48.824 14.6646C48.8313 14.8739 48.7597 15.0786 48.6225 15.2401C48.4853 15.4016 48.2921 15.5088 48.0792 15.5414C46.743 15.767 45.827 16.8985 45.827 18.4775V21.1064C45.8264 21.2265 45.8013 21.3452 45.7532 21.4558C45.7052 21.5664 45.6351 21.6667 45.5471 21.7509C45.459 21.8351 45.3547 21.9015 45.2402 21.9463C45.1256 21.9912 45.0031 22.0136 44.8796 22.0122C44.757 22.0131 44.6354 21.9903 44.522 21.9451C44.4085 21.8999 44.3054 21.8332 44.2188 21.7489C44.1321 21.6646 44.0635 21.5644 44.017 21.4541C43.9705 21.3438 43.947 21.2256 43.9479 21.1064L43.9475 14.6765ZM49.5356 14.6805C49.5333 14.5602 49.5557 14.4407 49.6015 14.3289C49.6473 14.2172 49.7156 14.1154 49.8024 14.0296C49.8892 13.9438 49.9927 13.8757 50.1068 13.8293C50.221 13.7829 50.3436 13.7592 50.4673 13.7594C50.592 13.7587 50.7155 13.782 50.8308 13.8281C50.946 13.8741 51.0508 13.9419 51.1389 14.0276C51.227 14.1133 51.2968 14.2151 51.3441 14.3272C51.3915 14.4393 51.4155 14.5594 51.4148 14.6805V21.1121C51.4055 21.3483 51.3025 21.5718 51.1273 21.7358C50.9521 21.8997 50.7184 21.9913 50.4752 21.9913C50.232 21.9913 49.9983 21.8997 49.8232 21.7358C49.648 21.5718 49.5449 21.3483 49.5356 21.1121V14.6805ZM52.3639 14.6839C52.3614 14.5635 52.3836 14.4439 52.4293 14.332C52.475 14.2201 52.5433 14.1183 52.6301 14.0324C52.7169 13.9466 52.8205 13.8785 52.9348 13.8322C53.0491 13.7859 53.1718 13.7623 53.2956 13.7627C53.4202 13.762 53.5438 13.7854 53.659 13.8314C53.7743 13.8775 53.8791 13.9453 53.9672 14.031C54.0553 14.1166 54.1251 14.2185 54.1724 14.3305C54.2198 14.4426 54.2438 14.5627 54.243 14.6839V15.0586C54.5166 14.6435 54.8971 14.3052 55.3467 14.0773C55.7963 13.8494 56.2994 13.7398 56.8061 13.7594C58.6537 13.7594 59.7268 14.9674 59.7268 16.8126V21.1074C59.7289 21.2269 59.7062 21.3456 59.6602 21.4565C59.6141 21.5673 59.5456 21.668 59.4586 21.7525C59.3717 21.837 59.2681 21.9037 59.1541 21.9485C59.0401 21.9933 58.918 22.0153 58.7951 22.0132C58.6708 22.0164 58.5471 21.9953 58.4313 21.9511C58.3155 21.907 58.2101 21.8408 58.1211 21.7563C58.0321 21.6719 57.9615 21.5709 57.9133 21.4595C57.8652 21.348 57.8405 21.2283 57.8408 21.1074V17.375C57.8408 16.1371 57.2041 15.4259 56.0856 15.4259C54.9985 15.4259 54.2379 16.167 54.2379 17.4053V21.1064C54.2286 21.3426 54.1256 21.5662 53.9504 21.7301C53.7752 21.8941 53.5415 21.9857 53.2984 21.9857C53.0552 21.9857 52.8215 21.8941 52.6463 21.7301C52.4711 21.5662 52.3681 21.3426 52.3588 21.1064L52.3639 14.6839ZM67.9891 13.7388C67.8645 13.7381 67.7409 13.7614 67.6257 13.8075C67.5104 13.8535 67.4057 13.9213 67.3175 14.007C67.2294 14.0927 67.1597 14.1945 67.1123 14.3066C67.0649 14.4186 67.0409 14.5387 67.0417 14.6599V15.2023C66.4358 14.371 65.5815 13.7048 64.25 13.7048C62.3308 13.7048 60.4431 15.184 60.4431 17.8419V17.8725C60.438 20.5171 62.3031 22.0095 64.2449 22.0095C65.6037 22.0095 66.457 21.353 67.0362 20.6169C66.9421 22.0535 66.0381 22.8119 64.452 22.8119C63.5684 22.8205 62.6981 22.6023 61.929 22.1793C61.8232 22.1287 61.7066 22.1032 61.5888 22.1047C61.3815 22.1047 61.1825 22.1834 61.0342 22.3241C60.8858 22.4648 60.8 22.6564 60.795 22.8578C60.7915 23.0172 60.8403 23.1735 60.9345 23.3041C61.0286 23.4347 61.163 23.5327 61.3184 23.5839C62.3034 24.0566 63.388 24.3 64.4865 24.2947C65.9624 24.2947 67.1118 23.9553 67.859 23.2232C68.5412 22.5583 68.9057 21.5593 68.9057 20.2176V14.6562C68.908 14.5371 68.8861 14.4187 68.8412 14.3078C68.7962 14.1969 68.7292 14.0957 68.6439 14.0101C68.5586 13.9245 68.4568 13.8562 68.3442 13.809C68.2317 13.7618 68.1106 13.7367 67.9881 13.7351L67.9891 13.7388ZM64.6953 20.4302C63.4059 20.4302 62.3507 19.4485 62.3507 17.8778V17.8472C62.3507 16.3071 63.422 15.3028 64.6953 15.3028C65.9686 15.3028 67.0872 16.3221 67.0872 17.8472V17.8778C67.0872 19.4026 65.9707 20.4302 64.6953 20.4302Z" fill="#3B3F45"/>
<path d="M50.4762 12.4785C50.9995 12.4785 51.4237 12.0661 51.4237 11.5573C51.4237 11.0486 50.9995 10.6362 50.4762 10.6362C49.953 10.6362 49.5288 11.0486 49.5288 11.5573C49.5288 12.0661 49.953 12.4785 50.4762 12.4785Z" fill="#3B3F45"/>
</svg>
