<svg width="99" height="50" fill="none" xmlns="http://www.w3.org/2000/svg">
<path fill-rule="evenodd" clip-rule="evenodd" d="M14.3244 21.6465C15.2847 17.8408 17.6879 15.938 21.5316 15.938C27.2983 15.938 28.0177 20.2173 30.9003 20.9319C32.8225 21.408 34.5039 20.6951 35.9452 18.7922C34.9849 22.5971 32.5816 24.4999 28.7388 24.4999C22.972 24.4999 22.2526 20.2206 19.3701 19.506C17.4478 19.0299 15.7665 19.7428 14.3252 21.6457L14.3244 21.6465ZM7.11719 30.2084C8.07914 26.4028 10.4799 24.4999 14.3244 24.4999C20.0911 24.4999 20.8105 28.7793 23.6931 29.4938C25.6153 29.97 27.2967 29.257 28.738 27.3542C27.7777 31.1598 25.3744 33.0627 21.5308 33.0627C15.764 33.0627 15.0446 28.7833 12.1621 28.0688C10.2398 27.5926 8.55846 28.3056 7.11719 30.2084Z" fill="#3B3F45"/>
<path fill-rule="evenodd" clip-rule="evenodd" d="M41.1919 22.5219H39.3052V21.4031H44.3954V22.5219H42.5095V27.5967H41.1919V22.5219ZM46.8597 27.0242C46.6851 27.2211 46.4788 27.388 46.2492 27.5183C46.0248 27.6457 45.7336 27.7094 45.3763 27.7094C45.1792 27.7103 44.9828 27.6839 44.7931 27.631C44.6083 27.5787 44.4466 27.4979 44.3096 27.3884C44.1727 27.279 44.0621 27.1393 43.9813 26.9678C43.9004 26.7963 43.8575 26.5938 43.8575 26.3553C43.8575 26.0434 43.9276 25.7886 44.0687 25.5918C44.2101 25.3941 44.4005 25.2358 44.6215 25.132C44.8492 25.0217 45.1049 24.9441 45.3887 24.8976C45.6751 24.8509 45.9641 24.822 46.2542 24.811L46.8415 24.7849V24.5595C46.8415 24.2818 46.7648 24.0907 46.6089 23.9878C46.453 23.8849 46.2706 23.8327 46.0611 23.8327C45.5743 23.8327 45.2971 24.0148 45.2278 24.3798L44.1059 24.2761C44.1867 23.8024 44.3979 23.4594 44.737 23.2471C45.0761 23.0348 45.5331 22.9302 46.1065 22.9302C46.4571 22.9302 46.7557 22.9711 47.0016 23.056C47.2474 23.1409 47.4454 23.2602 47.5939 23.4153C47.7462 23.5767 47.8576 23.7715 47.919 23.9837C47.9866 24.2059 48.0197 24.4574 48.0197 24.7351V27.5975H46.8597V27.0258V27.0242ZM46.8333 25.5754L46.2888 25.6016C46.0314 25.6122 45.8235 25.6391 45.6659 25.68C45.5083 25.7208 45.3854 25.7714 45.3029 25.8319C45.2204 25.8923 45.1602 25.9625 45.1322 26.0442C45.1041 26.1259 45.0884 26.2157 45.0884 26.3137C45.0884 26.464 45.1412 26.5832 45.2452 26.6689C45.3491 26.7547 45.4968 26.7996 45.6824 26.7996C45.9992 26.7996 46.2566 26.7277 46.4546 26.5824C46.566 26.5007 46.6576 26.3978 46.7269 26.2745C46.7962 26.1512 46.8316 25.9952 46.8316 25.8106V25.5762L46.8333 25.5754ZM49.0163 23.0683H50.2455V27.5959H49.0163V23.0683ZM48.9998 21.4023H50.262V22.495H48.9998V21.4023ZM51.2966 21.4023H52.5258V27.5959H51.2966V21.4023ZM53.0761 23.0683H54.4093L55.0503 26.0695L55.9265 23.1115H56.9973L57.8223 26.0785L58.4633 23.0772H59.7445L58.4105 27.6048H57.2167L56.4 24.6207L55.575 27.6048H54.4084L53.0752 23.0772L53.0761 23.0683ZM60.3031 23.0683H61.5323V27.5959H60.3031V23.0683ZM60.2866 21.4023H61.5488V22.495H60.2866V21.4023ZM62.5751 23.0683H63.7689V23.693C63.9504 23.4276 64.1649 23.2332 64.4124 23.1115C64.6599 22.9899 64.9198 22.9294 65.1879 22.9294C65.7093 22.9294 66.0954 23.0642 66.347 23.3329C66.5986 23.6015 66.7249 24.0254 66.7249 24.6036V27.5959H65.4964V24.7694C65.4964 24.4427 65.4354 24.2345 65.3116 24.1185C65.1879 24.0025 65.0254 23.9454 64.8208 23.9454C64.664 23.9454 64.5271 23.9699 64.4124 24.0148C64.2977 24.0597 64.1913 24.1275 64.0923 24.214C64.0098 24.2957 63.9413 24.3921 63.8861 24.5048C63.8307 24.6198 63.8025 24.7457 63.8035 24.8731V27.5967H62.566V23.0691L62.5751 23.0683ZM70.8911 26.9981C70.7372 27.2306 70.5258 27.4203 70.2771 27.5494C70.0283 27.6784 69.7504 27.7425 69.4697 27.7355C68.8262 27.7355 68.3476 27.5215 68.03 27.0936C67.7124 26.6657 67.5565 26.0728 67.5565 25.3157C67.5528 24.9884 67.599 24.6625 67.6934 24.3488C67.7842 24.0564 67.9137 23.8049 68.0837 23.5942C68.2505 23.3857 68.4636 23.218 68.7065 23.1042C68.954 22.9899 69.2304 22.9311 69.5398 22.9311C69.7675 22.9311 69.9935 22.9719 70.2187 23.0536C70.444 23.1352 70.656 23.2986 70.8556 23.5223V21.4055H72.0849V27.5991H70.8919V27.0005L70.8911 26.9981ZM70.8647 25.2806C70.8647 24.9915 70.84 24.7604 70.7822 24.5864C70.7245 24.4125 70.6519 24.272 70.5413 24.1618C70.4357 24.0581 70.3202 23.9984 70.1948 23.9576C70.0734 23.9261 69.9483 23.9102 69.8228 23.9102C69.6913 23.9097 69.5612 23.9364 69.4408 23.9886C69.3203 24.0409 69.2164 24.1218 69.1248 24.2312C69.0332 24.3406 68.9623 24.486 68.9103 24.664C68.8583 24.8421 68.8311 25.056 68.8311 25.3059C68.8311 25.5771 68.8558 25.8041 68.9136 25.987C68.9713 26.17 69.0316 26.317 69.1198 26.4297C69.2081 26.5424 69.3096 26.6232 69.4267 26.6722C69.5439 26.7212 69.6701 26.7539 69.8046 26.7539C70.0966 26.7539 70.3367 26.6698 70.524 26.5023C70.6422 26.3841 70.7306 26.24 70.7822 26.0818C70.8367 25.9168 70.8647 25.7045 70.8647 25.4448V25.2896V25.2806ZM80.4694 25.4537C80.4397 25.7837 80.3621 26.0883 80.2367 26.3684C80.115 26.6429 79.9391 26.8905 79.7194 27.0969C79.4866 27.3106 79.2116 27.4744 78.9118 27.5779C78.5933 27.6922 78.2237 27.751 77.8021 27.751C77.3286 27.751 76.9111 27.6726 76.5514 27.5166C76.203 27.3688 75.8938 27.1433 75.6481 26.8576C75.4047 26.5742 75.2224 26.2312 75.0994 25.8286C74.9765 25.426 74.9155 24.9825 74.9155 24.4974C74.9155 23.9944 74.9815 23.5436 75.1168 23.1442C75.2521 22.7449 75.4451 22.4043 75.6959 22.1209C75.9467 21.8375 76.252 21.6203 76.6084 21.47C76.9648 21.3198 77.3699 21.2446 77.8211 21.2446C78.2188 21.2446 78.5661 21.2936 78.8606 21.3916C79.1551 21.4896 79.4051 21.6317 79.6073 21.8163C79.8094 22.0009 79.9702 22.2246 80.094 22.4843C80.2226 22.7635 80.3138 23.0581 80.3654 23.3606L79.066 23.5256C79.0017 23.1614 78.8763 22.8747 78.6948 22.6665C78.5133 22.4582 78.218 22.3545 77.8203 22.3545C77.3171 22.3545 76.9351 22.5407 76.676 22.9139C76.417 23.2871 76.2842 23.8139 76.2842 24.4966C76.2842 25.1851 76.4244 25.7216 76.7016 26.0842C76.8271 26.2612 76.995 26.4045 77.1902 26.5014C77.3855 26.5984 77.602 26.6458 77.8203 26.6395C78.2246 26.6395 78.5215 26.5366 78.7113 26.3317C78.901 26.1267 79.019 25.8335 79.066 25.4513L80.4694 25.4537ZM82.3809 25.5762C82.4098 25.9576 82.5343 26.2353 82.7521 26.4092C82.9699 26.5832 83.2942 26.6706 83.7215 26.6706C83.9261 26.6706 84.0994 26.6485 84.2396 26.6052C84.3799 26.562 84.4937 26.504 84.582 26.4321C84.6662 26.3647 84.7311 26.2765 84.7701 26.1765C84.809 26.0739 84.8284 25.9651 84.827 25.8555C84.827 25.6922 84.7668 25.5411 84.6439 25.3998C84.5209 25.2586 84.2957 25.1548 83.9674 25.092L83.1506 24.945C82.8206 24.8878 82.5451 24.8118 82.2992 24.7196C82.0534 24.6273 81.8471 24.5072 81.6805 24.3602C81.5138 24.2132 81.3868 24.0319 81.2993 23.818C81.2119 23.604 81.1673 23.3492 81.1673 23.0544C81.1619 22.7835 81.2237 22.5154 81.3472 22.2736C81.4664 22.0493 81.6377 21.8561 81.8471 21.7101C82.0616 21.5599 82.3174 21.4455 82.6144 21.3671C82.9114 21.2887 83.2414 21.2504 83.5978 21.2504C84.054 21.2504 84.4343 21.3026 84.7387 21.4055C85.0432 21.5084 85.289 21.6464 85.4763 21.8179C85.6636 21.9894 85.8022 22.1854 85.8929 22.4125C85.9837 22.6395 86.0439 22.8723 86.0744 23.1148L84.8369 23.27C84.7726 22.9286 84.6488 22.682 84.4657 22.5325C84.2825 22.3831 84.002 22.3071 83.6275 22.3071C83.4047 22.3071 83.2232 22.3259 83.0789 22.3643C82.9345 22.4027 82.8198 22.4509 82.7323 22.5113C82.6518 22.5634 82.5877 22.637 82.5475 22.7236C82.5129 22.8053 82.4948 22.8886 82.4948 22.9752C82.4948 23.2063 82.5607 23.3802 82.6927 23.4954C82.8247 23.6105 83.0475 23.7012 83.3635 23.7649L84.2231 23.9298C84.9021 24.063 85.3996 24.2786 85.7164 24.575C86.0332 24.8715 86.1899 25.31 86.1899 25.8629C86.1899 26.134 86.1388 26.3856 86.0365 26.6142C85.9316 26.8453 85.7754 27.0499 85.5794 27.2128C85.3565 27.3952 85.0986 27.531 84.8213 27.6122C84.5177 27.7077 84.1612 27.7551 83.7504 27.7551C82.8957 27.7551 82.2423 27.5754 81.7894 27.2128C81.3364 26.8502 81.0914 26.3145 81.0469 25.5779H82.3718L82.3809 25.5762ZM88.0734 25.5762C88.1023 25.9576 88.2268 26.2353 88.4446 26.4092C88.6624 26.5832 88.9891 26.6706 89.414 26.6706C89.6203 26.6706 89.7919 26.6485 89.9338 26.6052C90.0757 26.562 90.1879 26.504 90.2761 26.4321C90.3604 26.3647 90.4252 26.2765 90.4642 26.1765C90.5032 26.0739 90.5225 25.9651 90.5212 25.8555C90.5187 25.6864 90.4532 25.5241 90.3372 25.3998C90.2134 25.2586 89.989 25.1548 89.6607 25.092L88.844 24.945C88.514 24.8878 88.2384 24.8118 87.9925 24.7196C87.7467 24.6273 87.5404 24.5072 87.3738 24.3602C87.2071 24.2132 87.0801 24.0319 86.9918 23.818C86.9035 23.604 86.8598 23.3492 86.8598 23.0544C86.8544 22.7835 86.9162 22.5154 87.0397 22.2736C87.1601 22.0482 87.3268 21.8596 87.5396 21.702C87.7525 21.5444 88.0099 21.4374 88.3069 21.359C88.6039 21.2806 88.9339 21.2422 89.2903 21.2422C89.7465 21.2422 90.1268 21.2945 90.4312 21.3974C90.7357 21.5003 90.9807 21.6383 91.1688 21.8098C91.3569 21.9813 91.4955 22.1773 91.5854 22.4043C91.6754 22.6313 91.7364 22.8641 91.7669 23.1066L90.5294 23.2618C90.4651 22.9204 90.3413 22.6738 90.1582 22.5244C89.975 22.3749 89.6945 22.299 89.32 22.299C89.0972 22.299 88.9157 22.3177 88.7713 22.3561C88.627 22.3945 88.5123 22.4427 88.4248 22.5031C88.3443 22.5553 88.2802 22.6289 88.24 22.7155C88.2046 22.7971 88.1872 22.8804 88.1872 22.967C88.1872 23.1981 88.2533 23.3721 88.3853 23.4872C88.5173 23.6024 88.74 23.693 89.0568 23.7567L89.9247 23.9282C90.6037 24.0613 91.1011 24.2769 91.4179 24.5734C91.7347 24.8698 91.8915 25.3084 91.8915 25.8613C91.8944 26.1193 91.8421 26.3751 91.738 26.6118C91.6334 26.843 91.4771 27.0477 91.281 27.2104C91.0797 27.3819 90.8272 27.5142 90.522 27.6106C90.2167 27.7069 89.862 27.7535 89.452 27.7535C88.5973 27.7535 87.9439 27.5738 87.4901 27.2112C87.0364 26.8486 86.7922 26.3129 86.7575 25.5762H88.0734Z" fill="#3B3F45"/>
</svg>
