<svg width="40" height="40" viewBox="0 0 48 40" fill="none" xmlns="http://www.w3.org/2000/svg">
<path fill-rule="evenodd" clip-rule="evenodd" d="M7.24091 32.3692V29.3251C7.24091 28.9251 7.49291 28.6038 7.91029 28.6038H8.02579C8.44298 28.6038 8.69385 28.9256 8.69385 29.3251V35.7338C8.69385 37.2966 7.91572 38.5401 6.55972 39.3323C5.93857 39.6975 5.22953 39.8894 4.50754 39.8877H4.21935C2.64398 39.8877 1.39241 39.115 0.592725 37.7705C0.224193 37.1542 0.0308419 36.4504 0.0332249 35.7338V35.4482C0.0332249 33.8849 0.811725 32.6421 2.1666 31.8482C2.78764 31.4823 3.49708 31.2904 4.21935 31.2929H4.50754C5.57366 31.2929 6.47629 31.7031 7.24091 32.3692ZM1.48597 35.5907C1.48597 36.7197 2.03722 37.5684 3.03435 38.1098C3.43747 38.3286 3.8751 38.4462 4.33504 38.4462C5.45179 38.4462 6.28016 37.9253 6.85129 36.9844C7.11698 36.5476 7.24073 36.0696 7.24073 35.5615C7.24073 34.5829 6.77197 33.8192 5.97885 33.2519C5.49697 32.9081 4.95454 32.7357 4.36297 32.7357C3.14572 32.7357 2.26972 33.3459 1.74397 34.4298C1.5666 34.7963 1.4856 35.1852 1.4856 35.5907H1.48597ZM13.7342 31.2931H13.9356C15.619 31.2931 16.8992 32.1033 17.7105 33.5613C18.0349 34.1446 18.2085 34.7812 18.2085 35.4482V35.7338C18.2085 37.2966 17.4319 38.5418 16.0739 39.3325C15.4452 39.6985 14.7507 39.8877 14.022 39.8877H13.7342C12.1589 39.8877 10.9067 39.115 10.1076 37.7705C9.73889 37.1543 9.54534 36.4504 9.54754 35.7338V35.4482C9.54754 33.8847 10.3294 32.646 11.6807 31.8488C12.3016 31.4818 13.0115 31.2896 13.7342 31.2931ZM11.0005 35.5907C11.0005 36.6884 11.5442 37.4927 12.4752 38.0596C12.9132 38.3256 13.3939 38.4462 13.9073 38.4462C14.9985 38.4462 15.8052 37.8973 16.3665 36.9833C16.6343 36.5476 16.7554 36.0689 16.7554 35.5615C16.7554 34.5426 16.2608 33.7643 15.4152 33.2C14.9621 32.8942 14.426 32.7322 13.878 32.7357C12.6608 32.7357 11.7848 33.3459 11.2592 34.4298C11.0815 34.7963 11.0005 35.1852 11.0005 35.5907ZM24.2485 32.8508C24.0291 32.7489 23.6185 32.715 23.3815 32.7061C22.1676 32.6607 21.2894 33.339 20.7741 34.4015C20.596 34.768 20.515 35.1559 20.515 35.5615C20.515 36.7963 21.1684 37.6609 22.2775 38.1879C22.6832 38.3803 23.2071 38.4168 23.6505 38.4168C24.0405 38.4168 24.5918 38.1798 24.9379 38.0168L24.9979 37.9885H25.2666L25.2962 37.9945C25.6266 38.0627 25.876 38.2706 25.876 38.6233V38.766C25.876 39.6438 24.2593 39.8447 23.6425 39.8875C21.4675 40.0369 19.8375 38.8506 19.2169 36.7904C19.1091 36.4326 19.0605 36.0772 19.0605 35.7044V35.4192C19.0605 33.8559 19.8424 32.6173 21.1937 31.8211C21.8139 31.4526 22.524 31.2595 23.2468 31.2629H23.5348C24.3092 31.2629 25.0225 31.4812 25.6618 31.9145L25.7143 31.9505L25.7475 32.0049C25.8165 32.1165 25.876 32.2497 25.876 32.3848V32.5275C25.876 32.8955 25.5985 33.0934 25.2636 33.1574L25.2358 33.1623H25.15C24.9332 33.1623 24.4403 32.9396 24.2468 32.8492L24.2485 32.8508ZM28.9611 33.827L30.6645 32.1552C30.8239 32.0013 31.4284 31.3502 31.6663 31.3502H31.9266L31.9562 31.3563C32.2877 31.4246 32.536 31.6328 32.536 31.9863V32.1288C32.536 32.3699 32.2514 32.6501 32.0944 32.8172C31.7607 33.1682 31.4093 33.5078 31.0677 33.8516L29.3123 35.6198L31.5728 37.881C31.7807 38.09 31.987 38.3006 32.1917 38.5128C32.2639 38.5881 32.3704 38.6802 32.431 38.7863C32.496 38.8841 32.536 38.9946 32.536 39.1122V39.2611L32.5275 39.2955C32.446 39.6244 32.2356 39.8897 31.8683 39.8897H31.7526C31.5122 39.8897 31.2407 39.6199 31.0761 39.4655C30.7386 39.1481 30.4092 38.8144 30.0767 38.4901L28.9611 37.4036V39.1401C28.9611 39.5401 28.7087 39.8616 28.2917 39.8616H28.1792C27.7618 39.8616 27.5098 39.5401 27.5098 39.1401V29.3548C27.5098 28.9548 27.762 28.6348 28.1792 28.6348H28.2917C28.7085 28.6348 28.9611 28.9548 28.9611 29.3548V33.8289V33.827ZM47.0693 31.3502H47.2137C47.6494 31.3502 47.9402 31.6415 47.9402 32.0715C47.9402 32.6683 47.3652 32.8213 46.8677 32.8213C46.2152 32.8213 45.5922 33.2132 45.1423 33.6529C44.5798 34.2017 44.3361 34.9042 44.3361 35.6767V39.1669C44.3361 39.5669 44.0843 39.888 43.6667 39.888H43.552C43.1344 39.888 42.8826 39.5671 42.8826 39.1669V35.4765C42.8826 34.0594 43.5779 32.9026 44.7388 32.0912C45.4326 31.6066 46.2239 31.3507 47.071 31.3507L47.0693 31.3502ZM36.7429 38.2666C37.2717 38.4499 37.8745 38.4237 38.4169 38.3299C38.6944 38.2127 39.4039 37.9057 39.6649 37.9507L39.7056 37.9576L39.7431 37.9759C39.9025 38.0525 40.0544 38.161 40.1359 38.3219C40.326 38.699 40.2347 39.0782 39.8612 39.2923L39.7369 39.3636C38.3588 40.1528 36.8929 40.0434 35.5191 39.3063C34.8623 38.9539 34.3598 38.4309 33.9891 37.7933L33.9025 37.6445C33.0175 36.1241 33.1371 34.5249 34.135 33.0789C34.4794 32.5792 34.9296 32.1933 35.4559 31.8912L35.655 31.7772C36.9529 31.0337 38.3438 31.0847 39.6769 31.7372C40.3937 32.088 40.9744 32.611 41.3745 33.2988L41.4465 33.4227C41.7372 33.9225 41.3607 34.3578 40.9722 34.6555C40.521 35.0008 40.0656 35.4183 39.6334 35.7866L36.7433 38.2666H36.7429ZM35.4951 37.3971L39.8638 33.6693C39.5714 33.3035 39.0827 33.0399 38.6676 32.8826C37.8295 32.5658 37.0032 32.6724 36.2346 33.1124C35.2287 33.6888 34.8002 34.6064 34.8377 35.7487C34.8527 36.1986 34.9746 36.632 35.2152 37.0147C35.2999 37.1496 35.3946 37.2763 35.497 37.3971H35.4951Z" fill="#364548"/>
<path d="M26.1954 15.1911H22.533V11.9064H26.1954V15.1911ZM26.1954 3.8938H22.533V7.25035H26.1954V3.8938ZM30.5282 11.9009H26.8658V15.1855H30.5282V11.9009ZM21.8681 7.91392H18.2057V11.2373H21.8681V7.91392ZM26.1954 7.91392H22.533V11.2373H26.1954V7.91392ZM41.5319 13.4437C40.7341 12.9073 38.8946 12.7137 37.4817 12.9792C37.2989 11.652 36.5564 10.4963 35.2045 9.45672L34.4288 8.94245L33.9135 9.71661C32.894 11.2539 32.617 13.7865 33.7085 15.4565C33.2265 15.7164 32.279 16.0703 31.0268 16.0482H6.94154C6.45951 18.8573 7.2629 22.5069 9.37944 25.0119C11.435 27.4394 14.5156 28.6726 18.5437 28.6726C27.2647 28.6726 33.7196 24.6635 36.7393 17.3808C37.925 17.403 40.4847 17.3864 41.7979 14.8814C41.881 14.7431 42.1636 14.1515 42.2688 13.9358L41.5319 13.4437ZM13.2136 11.9009H9.55674V15.1855H13.2191V11.9009H13.2136ZM17.5408 11.9009H13.8785V15.1855H17.5408V11.9009ZM21.8681 11.9009H18.2057V15.1855H21.8681V11.9009ZM17.5408 7.91392H13.8785V11.2373H17.5408V7.91392Z" fill="#3B3F45"/>
</svg>
