<svg width="20" height="20" viewBox="0 0 15 15" fill="none" xmlns="http://www.w3.org/2000/svg">
<path d="M4.86035 11.6426C4.86035 11.7012 4.79297 11.748 4.70801 11.748C4.61133 11.7568 4.54395 11.71 4.54395 11.6426C4.54395 11.584 4.61133 11.5371 4.69629 11.5371C4.78418 11.5283 4.86035 11.5752 4.86035 11.6426ZM3.94922 11.5107C3.92871 11.5693 3.9873 11.6367 4.0752 11.6543C4.15137 11.6836 4.23926 11.6543 4.25684 11.5957C4.27441 11.5371 4.21875 11.4697 4.13086 11.4434C4.05469 11.4229 3.96973 11.4521 3.94922 11.5107ZM5.24414 11.4609C5.15918 11.4814 5.10059 11.5371 5.10938 11.6045C5.11816 11.6631 5.19434 11.7012 5.28223 11.6807C5.36719 11.6602 5.42578 11.6045 5.41699 11.5459C5.4082 11.4902 5.3291 11.4521 5.24414 11.4609ZM7.17188 0.234375C3.1084 0.234375 0 3.31934 0 7.38281C0 10.6318 2.04492 13.4121 4.96582 14.3906C5.34082 14.458 5.47266 14.2266 5.47266 14.0361C5.47266 13.8545 5.46387 12.8525 5.46387 12.2373C5.46387 12.2373 3.41309 12.6768 2.98242 11.3643C2.98242 11.3643 2.64844 10.5117 2.16797 10.292C2.16797 10.292 1.49707 9.83203 2.21484 9.84082C2.21484 9.84082 2.94434 9.89941 3.3457 10.5967C3.9873 11.7275 5.0625 11.4023 5.48145 11.209C5.54883 10.7402 5.73926 10.415 5.9502 10.2217C4.3125 10.04 2.66016 9.80273 2.66016 6.98438C2.66016 6.17871 2.88281 5.77441 3.35156 5.25879C3.27539 5.06836 3.02637 4.2832 3.42773 3.26953C4.04004 3.0791 5.44922 4.06055 5.44922 4.06055C6.03516 3.89648 6.66504 3.81152 7.28906 3.81152C7.91309 3.81152 8.54297 3.89648 9.12891 4.06055C9.12891 4.06055 10.5381 3.07617 11.1504 3.26953C11.5518 4.28613 11.3027 5.06836 11.2266 5.25879C11.6953 5.77734 11.9824 6.18164 11.9824 6.98438C11.9824 9.81152 10.2568 10.0371 8.61914 10.2217C8.88867 10.4531 9.11719 10.8926 9.11719 11.5811C9.11719 12.5684 9.1084 13.79 9.1084 14.0303C9.1084 14.2207 9.24316 14.4521 9.61523 14.3848C12.5449 13.4121 14.5312 10.6318 14.5312 7.38281C14.5312 3.31934 11.2354 0.234375 7.17188 0.234375ZM2.84766 10.3389C2.80957 10.3682 2.81836 10.4355 2.86816 10.4912C2.91504 10.5381 2.98242 10.5586 3.02051 10.5205C3.05859 10.4912 3.0498 10.4238 3 10.3682C2.95312 10.3213 2.88574 10.3008 2.84766 10.3389ZM2.53125 10.1016C2.51074 10.1396 2.54004 10.1865 2.59863 10.2158C2.64551 10.2451 2.7041 10.2363 2.72461 10.1953C2.74512 10.1572 2.71582 10.1104 2.65723 10.0811C2.59863 10.0635 2.55176 10.0723 2.53125 10.1016ZM3.48047 11.1445C3.43359 11.1826 3.45117 11.2705 3.51855 11.3262C3.58594 11.3936 3.6709 11.4023 3.70898 11.3555C3.74707 11.3174 3.72949 11.2295 3.6709 11.1738C3.60645 11.1064 3.51855 11.0977 3.48047 11.1445ZM3.14648 10.7139C3.09961 10.7432 3.09961 10.8193 3.14648 10.8867C3.19336 10.9541 3.27246 10.9834 3.31055 10.9541C3.35742 10.916 3.35742 10.8398 3.31055 10.7725C3.26953 10.7051 3.19336 10.6758 3.14648 10.7139Z" fill="url(#paint0_linear_1218_1182)"/>
<defs>
<linearGradient id="paint0_linear_1218_1182" x1="7" y1="-3.5" x2="7.7224" y2="24.321" gradientUnits="userSpaceOnUse">
<stop offset="0.100054" stop-color="#4F0670"/>
<stop offset="1" stop-color="#FF5E00" stop-opacity="0.52"/>
</linearGradient>
</defs>
</svg>
