<svg width="35" height="35" viewBox="0 0 35 35" fill="none" xmlns="http://www.w3.org/2000/svg">
<g clip-path="url(#clip0_1246_755)">
<path d="M0 0H35V35H0V0Z" fill="#3B3F45"/>
<path d="M32.1355 26.6526C31.8793 25.0556 30.838 23.7149 27.7539 22.4639C26.6826 21.9715 25.4882 21.6189 25.1322 20.8071C25.0058 20.3346 24.9891 20.0685 25.069 19.7823C25.2986 18.8541 26.4064 18.5647 27.2848 18.8308C27.8504 19.0205 28.386 19.4563 28.7087 20.1516C30.2192 19.1735 30.2159 19.1802 31.2705 18.5081C30.8846 17.9093 30.6783 17.6331 30.4255 17.377C29.5172 16.3622 28.2795 15.8399 26.3 15.8798C25.9573 15.9231 25.6113 15.9696 25.2686 16.0129C24.2805 16.2624 23.339 16.7814 22.7867 17.4768C21.1298 19.3565 21.6023 22.6469 23.6184 24.001C25.6046 25.4915 28.5224 25.8309 28.895 27.2249C29.2577 28.9316 27.6408 29.4839 26.0338 29.2876C24.8494 29.0414 24.1907 28.4392 23.4787 27.3446C22.1679 28.1032 22.1679 28.1032 20.8204 28.8784C21.1398 29.5771 21.4758 29.8931 22.0115 30.4986C24.5467 33.0704 30.8912 32.944 32.0291 29.0514C32.0756 28.9183 32.3818 28.0266 32.1355 26.6526ZM19.0272 16.0861H15.7534C15.7534 18.914 15.7401 21.722 15.7401 24.5499C15.7401 26.3498 15.8333 28 15.5405 28.5057C15.0614 29.5005 13.8204 29.3774 13.2549 29.1844C12.6793 28.9016 12.3865 28.499 12.0472 27.9302C11.954 27.7671 11.8841 27.6407 11.8608 27.6307C10.9725 28.173 10.0875 28.7186 9.19922 29.261C9.64174 30.1692 10.2938 30.9577 11.1289 31.4701C12.3765 32.2186 14.0533 32.4482 15.8067 32.0456C16.9478 31.7129 17.9326 31.0243 18.4483 29.9763C19.1935 28.6022 19.0338 26.9387 19.0272 25.0989C19.0438 22.0979 19.0272 19.097 19.0272 16.0861Z" fill="#141414"/>
</g>
<defs>
<clipPath id="clip0_1246_755">
<rect width="35" height="35" fill="white"/>
</clipPath>
</defs>
</svg>
