<svg width="66" height="50" fill="none" xmlns="http://www.w3.org/2000/svg">
<path d="M9.45994 17.4681C9.45994 17.5121 10.2959 19.9981 11.3299 23.0121C12.3639 26.0041 13.1559 28.6001 13.1119 28.7541C13.0459 28.9081 12.8479 29.0401 12.6939 29.0401C12.2319 29.0401 10.9339 30.4481 10.6479 31.2841C10.1419 32.6701 10.4279 34.1221 11.4399 35.2881L12.0999 36.0141L10.7139 37.3341C9.28394 38.7201 7.72194 39.6661 7.21594 39.4901C6.35794 39.1601 5.69794 36.3001 6.48994 36.3001C6.99594 36.3001 8.35994 34.9801 8.71194 34.1221C9.85594 31.4821 7.47994 28.2921 4.66394 28.6881C3.29994 28.8641 2.13394 29.6781 1.56194 30.8441C0.945941 32.1201 0.967941 33.1101 1.67194 34.4741L2.22194 35.6181L1.69394 36.6741C0.857941 38.3241 0.439941 39.9741 0.439941 41.6901C0.439941 44.5941 1.45194 46.3321 3.78394 47.4981C6.26994 48.7521 8.90994 48.3561 13.5959 46.0021C16.4779 44.5501 18.3919 43.9121 21.0099 43.4721C23.6499 43.0321 25.2339 42.3061 26.2899 41.0741C27.0819 40.1501 27.7199 38.5001 27.7199 37.3781C27.7199 37.0261 27.5659 36.3001 27.3679 35.7281C27.1039 34.9361 27.0819 34.5621 27.2579 34.1661C27.6979 33.2201 27.5659 31.3941 26.9939 30.5581C26.5539 29.8981 25.4319 28.9741 24.8379 28.7761C24.7059 28.7321 25.4319 26.2681 26.4879 23.1221C27.5219 20.0421 28.3799 17.5121 28.3799 17.4681C28.3799 17.4241 24.1339 17.3801 18.9199 17.3801C13.7279 17.3801 9.45994 17.4241 9.45994 17.4681ZM25.9379 19.2941C25.8939 19.9101 22.7259 28.6881 22.5499 28.7541C22.4179 28.7981 21.5599 27.2801 20.6139 25.3881L18.9419 21.9781L17.2259 25.3881C16.2799 27.2801 15.4219 28.7981 15.2899 28.7541C15.1139 28.6881 11.9239 19.8441 11.9019 19.2941C11.8799 19.2061 15.0479 19.1401 18.9199 19.1401C22.7919 19.1401 25.9599 19.2061 25.9379 19.2941ZM20.3059 30.5581C20.0199 30.9541 19.7999 31.4381 19.7999 31.5921C19.7999 31.7901 19.5359 31.9001 19.0739 31.9001C18.4139 31.9001 18.2819 31.7901 17.9739 31.0641C17.7759 30.6241 17.5119 30.0961 17.3579 29.9201C17.1599 29.6341 17.2919 29.1941 18.0399 27.7201L18.9859 25.8501L19.9099 27.8301L20.8339 29.7881L20.3059 30.5581ZM6.13794 30.6681C8.11794 31.7021 7.21594 34.8041 4.94994 34.8041C3.47594 34.8041 2.41994 33.3741 2.85994 32.0101C3.34394 30.5581 4.77394 29.9641 6.13794 30.6681ZM15.7959 30.9101C17.3799 32.2301 16.5219 34.7601 14.4539 34.7601C13.3759 34.7601 12.8479 34.4741 12.4299 33.6601C11.9019 32.6481 12.0119 31.8121 12.7819 31.0421C13.6619 30.1621 14.8499 30.0961 15.7959 30.9101ZM25.0579 30.9541C25.9379 31.7681 26.1139 32.8681 25.5419 33.8141C24.7939 35.0241 22.8359 35.1561 21.9339 34.0781C20.1519 31.9001 22.9899 29.0621 25.0579 30.9541ZM19.9539 34.0341C20.6359 35.9921 23.2759 37.0481 25.3439 36.1901C25.6299 36.0801 25.7399 36.2121 25.8499 36.8281C26.0479 37.8181 25.8499 38.6101 25.1679 39.6441C24.4419 40.7881 23.2319 41.3381 20.3939 41.8221C17.7979 42.2841 16.4559 42.7681 11.9899 44.8361C7.80994 46.7721 5.91794 46.9701 3.98194 45.6941C1.84794 44.2641 1.60594 40.4581 3.43194 36.9161C3.89394 36.0361 4.39994 36.3221 4.39994 37.4881C4.39994 38.7421 5.16994 40.1501 6.29194 40.9641L7.19394 41.6241L8.66794 40.8981C10.2739 40.1061 12.0779 38.6761 13.0899 37.3781C13.6179 36.6961 13.8819 36.5201 14.4539 36.5201C14.8719 36.5201 15.5099 36.3881 15.9059 36.2121C16.6979 35.8821 18.0399 34.4741 18.0399 33.9901C18.0399 33.4841 19.7779 33.5501 19.9539 34.0341Z" fill="#3B3F45"/>
<path d="M38.72 31.5481C38.72 36.3661 38.698 36.7181 38.28 37.2461C37.708 37.9721 36.762 38.1701 35.794 37.7521C35.178 37.5101 34.958 37.2461 34.782 36.5861C34.65 36.1241 34.54 35.5741 34.54 35.3541C34.54 35.0681 34.364 34.9801 33.77 34.9801C33.044 34.9801 33 35.0241 33 35.7501C33 37.9501 34.32 39.2041 36.608 39.2261C38.258 39.2481 39.248 38.7641 39.93 37.6201C40.326 36.9161 40.37 36.4101 40.436 31.6141L40.524 26.4001H39.622H38.72V31.5481Z" fill="#3B3F45"/>
<path d="M62.04 28.4899V29.9199H61.27C60.566 29.9199 60.5 29.9639 60.5 30.5799C60.5 31.1959 60.566 31.2399 61.27 31.2399H62.04V34.7159C62.04 38.8519 62.084 38.9399 64.086 38.9399C65.252 38.9399 65.34 38.8959 65.34 38.4339C65.34 38.0159 65.186 37.8839 64.416 37.7079L63.47 37.5099L63.404 34.3639L63.338 31.2399H64.35C65.296 31.2399 65.34 31.2179 65.34 30.5799C65.34 29.9419 65.296 29.9199 64.35 29.9199H63.36V28.4899V27.0599H62.7H62.04V28.4899Z" fill="#3B3F45"/>
<path d="M44.8799 30.118C43.8239 30.69 43.1859 31.416 42.7899 32.538C41.9099 35.068 42.9439 37.994 45.0339 38.852C46.9699 39.666 49.4339 38.896 50.3359 37.18L50.8419 36.19L50.1159 36.124C49.6759 36.08 49.3679 36.146 49.3019 36.344C49.2579 36.498 48.9279 36.894 48.5979 37.224C47.4539 38.39 45.0779 37.928 44.3519 36.432C44.1539 36.014 43.9999 35.486 43.9999 35.222C43.9999 34.782 44.0879 34.76 47.4319 34.76H50.8859L50.7539 33.638C50.4679 31.218 48.9059 29.7 46.7499 29.722C46.1119 29.722 45.3199 29.898 44.8799 30.118ZM48.0919 31.372C48.6859 31.768 49.2799 32.758 49.2799 33.33C49.2799 33.616 48.8839 33.66 46.6399 33.66C44.3959 33.66 43.9999 33.616 43.9999 33.308C43.9999 32.78 44.4179 32.054 45.0559 31.526C45.7819 30.91 47.2779 30.844 48.0919 31.372Z" fill="#3B3F45"/>
<path d="M53.5699 30.074C52.5799 30.58 52.1399 31.24 52.1399 32.252C52.1399 33.528 52.8879 34.166 55.1099 34.782C57.6839 35.464 58.0799 35.728 58.0799 36.674C58.0799 37.4 57.2659 37.84 55.8799 37.84C54.5379 37.84 53.7679 37.466 53.4599 36.608C53.1739 35.904 51.9199 35.838 51.9199 36.52C51.9199 38.654 55.4839 39.93 58.0139 38.698C59.5539 37.95 60.0819 36.3 59.1579 35.112C58.5639 34.364 58.2559 34.21 56.1879 33.66C54.3619 33.154 53.6799 32.736 53.6799 32.098C53.6799 31.394 54.2959 31.02 55.4619 31.02C56.7819 31.02 57.3759 31.284 57.6399 32.032C57.7939 32.428 58.0139 32.56 58.5419 32.56C59.2019 32.56 59.2239 32.538 59.0919 31.856C58.8059 30.448 57.5739 29.7 55.5059 29.7C54.7799 29.722 53.9439 29.876 53.5699 30.074Z" fill="#3B3F45"/>
</svg>
