<svg width="79" height="46" viewBox="0 0 79 46" fill="none" xmlns="http://www.w3.org/2000/svg">
<path d="M57.4341 4.90605C53.1299 5.43716 49.4445 7.23756 46.4495 10.2622C43.9297 12.8098 42.208 16.0505 41.4638 19.6693C41.2486 20.6775 41.2127 21.1096 41.1858 22.8199C41.141 25.0254 41.2755 26.1957 41.7866 28.0861C42.0556 29.0853 42.8268 31.0747 43.0958 31.4888C43.1855 31.6239 43.2662 31.7679 43.2751 31.8219C43.2841 31.8669 43.4096 32.11 43.5621 32.362C43.7145 32.6051 43.9656 33.0282 44.127 33.2982C45.2389 35.1706 47.7497 37.6102 49.9287 38.9245C51.22 39.7076 51.4531 39.8066 51.6324 39.6986C51.767 39.6086 51.758 39.5996 51.5876 39.6356L51.3814 39.6806V37.4481C51.3814 36.0528 51.4172 35.1886 51.471 35.1526C51.6235 35.0626 51.5697 34.9276 51.4083 34.9816C51.3186 35.0086 51.3455 34.9636 51.471 34.8916C51.5966 34.8196 51.6414 34.7565 51.5697 34.7475C51.2558 34.7385 51.211 34.4685 51.202 32.6051C51.202 31.6059 51.2289 30.7867 51.2558 30.7867C51.2827 30.7867 51.5966 30.9217 51.9463 31.0927C54.0356 32.074 56.7257 32.5601 58.842 32.326C60.4471 32.155 61.3976 31.7319 62.2136 30.8407C63.3076 29.6434 63.6035 27.474 62.922 25.6826C62.6709 25.0254 61.9177 24.2603 61.1465 23.8732C59.6042 23.117 56.7975 23.018 54.1163 23.6301L53.5783 23.7562L52.8161 23.3151C51.5786 22.6039 51.6952 22.919 51.8656 20.7405C51.9463 19.7053 52.0718 18.1299 52.1436 17.2387C52.2153 16.3475 52.3229 15.0062 52.3767 14.2681C52.4215 13.5209 52.5202 12.3327 52.574 11.6125L52.6816 10.3072L59.2186 10.2802C64.3926 10.2622 65.7825 10.2892 65.8453 10.3702C65.8901 10.4423 65.908 9.65008 65.8811 8.47983C65.8632 7.10253 65.8811 6.48139 65.9439 6.48139C65.9977 6.48139 65.9887 6.44538 65.926 6.40038C65.8363 6.34636 65.8542 6.31036 66.0156 6.27435C66.3026 6.19333 66.4192 6.20233 66.2847 6.28335C66.2129 6.33736 66.2667 6.36437 66.4461 6.36437C66.5895 6.36437 66.7151 6.35537 66.7151 6.33736C66.7151 6.32836 66.5268 6.24734 66.2936 6.16632C66.0515 6.07631 65.7825 5.97728 65.6839 5.93227C65.3431 5.78824 64.4285 5.50918 63.6663 5.32014C61.7383 4.84304 59.2993 4.681 57.4341 4.90605Z" fill="#3B3F45"/>
<path d="M4.01712 23.0182C3.99022 28.5994 3.97229 29.1485 3.83778 29.4546C3.5598 30.0397 2.8514 30.4178 1.99953 30.4268H1.70361V31.0209V31.624L2.51962 31.552C3.32666 31.489 3.91848 31.327 3.79294 31.2009C3.75708 31.1649 3.78398 31.1559 3.85571 31.1829C4.19646 31.318 4.82416 30.6698 5.20974 29.7966L5.42495 29.3015L5.45185 23.1082L5.47875 16.9238H4.76139H4.04402L4.01712 23.0182ZM4.67172 30.5438C4.58205 30.6248 4.57308 30.6158 4.62688 30.4898C4.65378 30.3998 4.70759 30.3547 4.73449 30.3818C4.76139 30.4088 4.73449 30.4808 4.67172 30.5438Z" fill="#3B3F45"/>
<path d="M8.6084 21.0196C8.6084 24.9715 8.67117 26.0157 8.88638 26.0157C8.94018 26.0157 8.95811 26.0517 8.93121 26.0967C8.89535 26.1417 8.90431 26.2497 8.93121 26.3308C8.98502 26.4478 9.01192 26.4568 9.07469 26.3578C9.12849 26.2858 9.13746 26.3218 9.10159 26.4658C9.05675 26.6458 9.14642 26.8079 9.47821 27.231C9.81895 27.654 10.0611 27.8431 10.5812 28.1041C11.451 28.5452 12.0159 28.6533 13.2175 28.6083C14.3115 28.5632 14.9481 28.3832 15.6745 27.9151C16.1497 27.609 16.7057 26.9429 16.6339 26.7539C16.616 26.6908 16.625 26.6548 16.6698 26.6818C16.7684 26.7449 17.0016 26.2047 17.172 25.5206C17.2796 25.0885 17.3065 24.2513 17.3065 20.9566V16.9237H16.5981H15.8807L15.8538 21.1276L15.8269 25.3405L15.5669 25.9437C15.4323 26.2858 15.2799 26.5558 15.2351 26.5558C15.1902 26.5558 15.1544 26.6098 15.1544 26.6638C15.1454 26.8349 14.4639 27.231 13.9438 27.375C13.2533 27.564 12.3387 27.528 11.6841 27.285C10.9309 27.0059 10.4736 26.5108 10.2314 25.7006C10.0521 25.1245 10.0431 24.8904 10.0431 21.1006V17.1038L9.84586 17.0948C9.64858 17.0858 9.64858 17.0858 9.86379 17.0137C10.0162 16.9687 9.85482 16.9417 9.35267 16.9327L8.6084 16.9237V21.0196Z" fill="#3B3F45"/>
<path d="M34.8817 18.5891V19.8044H34.3437H33.8057V20.2995V20.7946H34.3347H34.8638L34.8996 23.8283L34.9265 26.8709L35.1956 27.3661C35.3749 27.6901 35.5273 27.8612 35.626 27.8522C35.7067 27.8432 35.7784 27.8882 35.7784 27.9512C35.7784 28.2122 36.9621 28.4373 38.3161 28.4463H39.0962V27.9152V27.3841L38.0471 27.3481C36.8365 27.303 36.4958 27.177 36.3075 26.7179C36.2178 26.5019 36.1819 25.6647 36.155 23.6032L36.1281 20.7946H37.6077H39.0962V20.2995V19.8044H37.6167H36.1371V18.5891V17.3739H35.5094H34.8817V18.5891ZM35.5453 27.6001C35.5722 27.6721 35.5632 27.7081 35.5094 27.6811C35.4556 27.6541 35.4197 27.5911 35.4197 27.5371C35.4197 27.4111 35.4825 27.4381 35.5453 27.6001Z" fill="#3B3F45"/>
<path d="M23.987 19.6245C23.3055 19.7235 22.6957 20.0566 22.1308 20.6327L21.6107 21.1638L21.6017 20.7768C21.5928 20.5607 21.5838 20.2637 21.5748 20.1196L21.5659 19.8496L20.9202 19.8226L20.2656 19.7956V24.1165V28.4374L20.9202 28.4194L21.5659 28.4014L21.6107 25.4308C21.6645 22.1001 21.6645 22.0911 22.3281 21.4249C22.8302 20.9208 23.2248 20.7678 24.0766 20.7588C24.6236 20.7498 24.8568 20.7858 25.0451 20.9028C25.3231 21.0918 25.4127 21.1098 25.3231 20.9478C25.2872 20.8938 25.2872 20.8668 25.332 20.9028C25.4307 20.9928 25.601 21.2899 25.8611 21.83C26.0763 22.2801 26.0763 22.2981 26.0853 25.2867C26.0942 26.9431 26.1211 28.3294 26.148 28.3744C26.2108 28.4734 27.3227 28.4644 27.3855 28.3654C27.4214 28.3204 27.3855 28.2574 27.3317 28.2394C27.242 28.2034 27.242 28.1854 27.3317 28.1854C27.4752 28.1764 27.4931 22.5502 27.3496 22.4601C27.2958 22.4241 27.2779 22.3611 27.3138 22.3161C27.3855 22.1901 27.1703 21.3259 27.0806 21.3799C27.0358 21.4069 27.0268 21.3529 27.0537 21.2629C27.1254 20.9748 26.0584 19.7775 25.879 19.9576C25.8521 19.9846 25.8252 19.9756 25.8252 19.9216C25.8252 19.8136 25.619 19.7505 25.054 19.6695C24.8657 19.6335 24.6416 19.5975 24.5698 19.5885C24.4981 19.5705 24.238 19.5885 23.987 19.6245Z" fill="#3B3F45"/>
<path d="M30.4164 24.0984L30.4433 28.4013L31.0979 28.4283L31.7435 28.4553V24.1254V19.8044H31.071H30.3984L30.4164 24.0984Z" fill="#3B3F45"/>
<path d="M51.3306 34.89C55.1664 35.9728 63.5491 37.0211 66.3936 32.551C69.9492 26.9634 66.3936 18.2572 55.9852 19.8165L56.1792 14.099L65.4355 14.1539V10.3206" stroke="#3B3F45" stroke-width="0.5" stroke-linecap="round"/>
<path d="M65.2413 6.19214C68.9263 6.77688 75.5736 12.1756 76.8665 17.7372C78.4827 24.6892 77.1898 33.1355 70.4664 38.0084C63.743 42.8813 56.017 41.7692 51.0391 39.3652" stroke="#3B3F45" stroke-width="0.5" stroke-linecap="round"/>
</svg>
