<svg width="20" height="20" viewBox="0 0 15 15" fill="none" xmlns="http://www.w3.org/2000/svg">
<path d="M3.35759 15H0.247768V4.98527H3.35759V15ZM1.801 3.61917C0.806585 3.61917 0 2.79549 0 1.80104C7.11763e-09 1.32338 0.189748 0.865275 0.527502 0.527514C0.865256 0.189752 1.32335 0 1.801 0C2.27866 0 2.73675 0.189752 3.07451 0.527514C3.41226 0.865275 3.60201 1.32338 3.60201 1.80104C3.60201 2.79549 2.79509 3.61917 1.801 3.61917ZM14.9967 15H11.8935V10.1249C11.8935 8.96303 11.8701 7.47305 10.2767 7.47305C8.65982 7.47305 8.41205 8.73535 8.41205 10.0412V15H5.30558V4.98527H8.28817V6.35137H8.3317C8.74687 5.56452 9.76105 4.73415 11.2741 4.73415C14.4214 4.73415 15 6.80674 15 9.49876V15H14.9967Z" fill="url(#paint0_linear_1227_13)"/>
<defs>
<linearGradient id="paint0_linear_1227_13" x1="7.5" y1="0" x2="8" y2="25.5" gradientUnits="userSpaceOnUse">
<stop offset="0.100054" stop-color="#4F0670"/>
<stop offset="1" stop-color="#FF5E00" stop-opacity="0.52"/>
</linearGradient>
</defs>
</svg>
