<svg width="71" height="37" viewBox="0 0 71 37" fill="none" xmlns="http://www.w3.org/2000/svg">
<g clip-path="url(#clip0_1246_611)">
<path d="M0 33.6101H2.33905V24.3482L5.96012 32.4253C6.38723 33.399 6.97242 33.7488 8.11924 33.7488C9.26606 33.7488 9.82837 33.4028 10.2562 32.4253L13.8776 24.3482V33.6135H16.217V24.3635C16.217 23.4611 15.8564 23.0247 15.1145 22.7994C13.3378 22.243 12.1456 22.7243 11.6061 23.9275L8.05268 31.8988L4.61084 23.924C4.09359 22.7208 2.87918 22.2395 1.10244 22.7959C0.359854 23.0216 0 23.458 0 24.3601V33.6101ZM18.1612 26.0689H20.4995V31.1738C20.4777 31.4513 20.5883 32.1022 21.8696 32.1221C22.5234 32.1325 26.9152 32.1221 26.9561 32.1221V26.0435H29.2996C29.31 26.0435 29.2972 34.3316 29.2976 34.3671C29.3104 36.4111 26.7689 36.8552 25.5978 36.8896H18.2121V35.3109L25.611 35.3105C27.1162 35.1506 26.9387 34.4005 26.9387 34.1477V33.5322H21.9674C19.6543 33.5113 18.1816 32.4983 18.1632 31.3334C18.1615 31.2291 18.2132 26.119 18.1619 26.0685L18.1612 26.0689Z" fill="#3B3F45"/>
<path d="M31.1025 33.6099H37.8274C38.6144 33.6099 39.3795 33.4448 39.9872 33.1586C40.9995 32.6926 41.4943 32.0607 41.4943 31.2334V29.5191C41.4943 28.842 40.9319 28.2105 39.8302 27.7894C39.2453 27.5633 38.5256 27.4434 37.8285 27.4434H34.9944C34.05 27.4434 33.6 27.1575 33.4877 26.526C33.4652 26.4509 33.4652 26.3869 33.4652 26.3153V25.2477C33.4652 25.1876 33.4652 25.1271 33.4877 25.0519C33.6 24.5707 33.8475 24.435 34.6796 24.3565C34.7472 24.3565 34.837 24.3412 34.9049 24.3412H41.5847V22.7773H35.0172C34.0725 22.7773 33.5778 22.8375 33.1278 22.9728C31.7321 23.4092 31.1247 24.1047 31.1247 25.3079V26.6766C31.1247 27.7296 32.3173 28.632 34.3183 28.8424C34.5437 28.8573 34.7683 28.8723 34.993 28.8723H37.4222C37.5123 28.8723 37.6024 28.8723 37.6697 28.8876C38.4116 28.9477 38.7271 29.083 38.9517 29.3535C39.0904 29.4926 39.132 29.6248 39.132 29.7708V31.1396C39.132 31.3051 39.0197 31.5158 38.7947 31.6959C38.5922 31.8768 38.2549 31.9967 37.8049 32.027C37.7148 32.027 37.6475 32.0419 37.5577 32.0419H31.1025V33.6061V33.6099ZM56.0857 30.8878C56.0857 32.4971 57.2775 33.3995 59.6842 33.58C59.9087 33.5975 60.1337 33.6074 60.3588 33.6099H66.4542V32.0458H60.3138C58.942 32.0458 58.4244 31.6998 58.4244 30.8725V22.7805H56.0853V30.8871L56.0857 30.8878ZM42.9864 30.9692V25.3931C42.9864 23.9764 43.9779 23.1171 45.9387 22.8458C46.1478 22.8159 46.3588 22.8008 46.57 22.8006H51.0099C51.2286 22.8008 51.4471 22.8159 51.6638 22.8458C53.6246 23.1171 54.6161 23.976 54.6161 25.3931V30.9692C54.6161 32.1185 54.1949 32.7336 53.2242 33.1346L55.5282 35.221H52.8123L50.9482 33.5331L49.0716 33.6524H46.57C46.1418 33.6524 45.6912 33.5918 45.1951 33.4562C43.7043 33.0494 42.9864 32.2655 42.9864 30.9692ZM45.5112 30.8301C45.5112 30.9055 45.5338 30.9806 45.5563 31.0714C45.695 31.7196 46.2999 32.0812 47.2204 32.0812H49.3455L47.3937 30.3137H50.1096L51.8083 31.8552C52.1221 31.6876 52.3283 31.431 52.3977 31.1016C52.4202 31.0265 52.4202 30.9511 52.4202 30.8756V25.529C52.4202 25.4689 52.4202 25.3899 52.3977 25.318C52.259 24.7153 51.6537 24.3686 50.7523 24.3686H47.2245C46.1845 24.3686 45.5119 24.8207 45.5119 25.529V30.8342L45.5112 30.8301Z" fill="#3B3F45"/>
<path d="M68.5121 20.1858C67.0744 20.1468 65.9758 20.2807 65.037 20.6778C64.77 20.7908 64.3447 20.7936 64.301 21.1292C64.4476 21.2833 64.4709 21.5135 64.587 21.703C64.8113 22.0671 65.1902 22.555 65.5275 22.8102C65.8964 23.0894 66.2764 23.3885 66.6726 23.6309C67.3764 24.0614 68.1619 24.3072 68.8394 24.7381C69.2387 24.9919 69.6353 25.3119 70.025 25.5991C70.2174 25.741 70.3474 25.9615 70.597 26.0501V26.0091C70.4653 25.8411 70.4317 25.6102 70.311 25.4353L69.7796 24.9022C69.2595 24.2067 68.6002 23.6027 67.8988 23.0974C67.3396 22.6947 66.0878 22.1509 65.8544 21.4978L65.8135 21.4568C66.2101 21.4116 66.6744 21.268 67.0408 21.1699C67.6555 21.0047 68.2049 21.0471 68.8401 20.883L69.6988 20.6368V20.4727C69.3778 20.1423 69.1489 19.7052 68.7991 19.4065C67.8839 18.6241 66.8844 17.8434 65.8558 17.1913C65.2852 16.8297 64.5801 16.5953 63.9751 16.2889C63.7716 16.186 63.4142 16.1325 63.28 15.9607C62.9624 15.5545 62.7895 15.0392 62.5444 14.5697C62.0313 13.5786 61.5272 12.4958 61.0724 11.4529C60.7621 10.7417 60.5593 10.0403 60.1731 9.40222C58.3166 6.34067 56.318 4.49276 53.2228 2.67684C52.5641 2.29084 51.7713 2.13784 50.933 1.93858L49.5837 1.85651C49.3092 1.74175 49.0235 1.40444 48.7656 1.241C47.7401 0.590721 45.1098 -0.822165 44.3503 1.03236C43.8708 2.2053 45.0668 3.34972 45.495 3.94437C45.7952 4.36166 46.18 4.82868 46.3943 5.29779C46.5354 5.60589 46.56 5.91504 46.6806 6.24122C46.9777 7.04103 47.2364 7.91839 47.6208 8.66082C47.815 9.03639 48.0292 9.43212 48.275 9.76804C48.4258 9.97426 48.6841 10.065 48.7247 10.3836C48.4723 10.7383 48.4577 11.2877 48.3156 11.737C47.6767 13.7581 47.9176 16.2698 48.847 17.7658C49.1324 18.2248 49.8039 19.2097 50.7278 18.832C51.5355 18.5016 51.3518 17.4793 51.5865 16.5765C51.6385 16.3714 51.6066 16.2218 51.7092 16.0845V16.1255L52.4452 17.6017C52.9895 18.4815 53.9568 19.4013 54.7756 20.022C55.2003 20.3436 55.5383 20.9 56.084 21.0882V21.0471H56.0431C55.9366 20.8802 55.7702 20.8117 55.634 20.6785C55.314 20.3638 54.958 19.9726 54.6934 19.6123C53.9481 18.5976 53.2901 17.4876 52.6903 16.3314C52.404 15.7795 52.1547 15.1706 51.9138 14.609C51.8209 14.3923 51.8219 14.0651 51.6278 13.9528C51.3632 14.3645 50.9736 14.697 50.769 15.1831C50.4418 15.96 50.3995 16.9072 50.2785 17.89C50.2067 17.9157 50.2386 17.898 50.1967 17.931C49.6274 17.7933 49.427 17.2053 49.2156 16.7007C48.6803 15.4245 48.5811 13.3707 49.0519 11.9025C49.1733 11.5228 49.7245 10.3258 49.5016 9.97495C49.3951 9.62477 49.044 9.41856 48.8474 9.15427C48.6047 8.82392 48.3613 8.38785 48.1932 8.00602C47.755 7.01147 47.5505 5.89521 47.0894 4.88919C46.8689 4.40861 46.4965 3.92246 46.1901 3.49821C45.851 3.02528 45.4714 2.67614 45.209 2.10723C45.1154 1.9038 44.9885 1.57866 45.1272 1.36897C45.1404 1.30873 45.1706 1.25353 45.214 1.20991C45.2575 1.16629 45.3126 1.13605 45.3726 1.12277C45.6097 0.939508 46.2705 1.18362 46.5174 1.2869C47.1726 1.56023 47.7203 1.82034 48.2757 2.1893C48.5427 2.36317 48.812 2.70953 49.1341 2.80481H49.5016C50.0771 2.93765 50.7219 2.84654 51.2592 3.00998C52.2098 3.29965 53.0613 3.75067 53.8351 4.2403C56.1918 5.73282 58.1183 7.85754 59.4364 10.3954C59.6485 10.8033 59.7401 11.1931 59.9269 11.6257C60.3038 12.4951 60.7784 13.3968 61.1535 14.2501C61.5279 15.1021 61.8919 15.961 62.4209 16.6697C62.699 17.0418 63.773 17.2421 64.2608 17.4487C64.6029 17.5937 65.1632 17.745 65.4873 17.9407C66.1061 18.3153 66.7059 18.7614 67.2866 19.1717C67.5768 19.3769 68.4688 19.8266 68.5131 20.1969L68.5121 20.1858Z" fill="#3B3F45"/>
<path fill-rule="evenodd" clip-rule="evenodd" d="M50.2375 4.561C49.9376 4.55543 49.7258 4.59369 49.5015 4.64307V4.6841H49.5424C49.6852 4.97899 49.9376 5.16851 50.1144 5.42236L50.5235 6.28338L50.5644 6.24234C50.8175 6.06325 50.9336 5.77706 50.9319 5.33995C50.8303 5.23284 50.8154 5.09861 50.7273 4.97064C50.6105 4.80025 50.3806 4.70357 50.2368 4.5603L50.2375 4.561Z" fill="#3B3F45"/>
<path fill-rule="evenodd" clip-rule="evenodd" d="M67.5522 32.0014C67.5522 33.0342 68.3659 33.7304 69.2759 33.7304C70.186 33.7304 70.9996 33.0342 70.9996 32.0014C70.9996 30.9686 70.186 30.2725 69.2759 30.2725C68.3659 30.2725 67.5522 30.9686 67.5522 32.0014ZM70.6134 32.0014C70.6134 32.7853 70.0161 33.3709 69.2752 33.3709C68.5264 33.3709 67.9371 32.7853 67.9371 32.0014C67.9371 31.2176 68.5257 30.632 69.2752 30.632C70.0154 30.632 70.6134 31.2176 70.6134 32.0014ZM69.7398 32.9883H70.1257L69.5606 32.1218C69.8639 32.0894 70.0934 31.9416 70.0934 31.5821C70.0934 31.1808 69.8403 31.0152 69.3536 31.0152H68.5857V32.9887H68.9168V32.1357H69.2246L69.7395 32.9887L69.7398 32.9883ZM68.9168 31.8582V31.2914H69.2981C69.4957 31.2914 69.7349 31.3282 69.7349 31.5591C69.7349 31.8356 69.519 31.8589 69.2704 31.8589H68.9168V31.8582Z" fill="#3B3F45"/>
</g>
<defs>
<clipPath id="clip0_1246_611">
<rect width="71" height="37" fill="white"/>
</clipPath>
</defs>
</svg>
