<svg width="1930" height="6751" viewBox="0 0 1930 6751" fill="none" xmlns="http://www.w3.org/2000/svg">
<g filter="url(#filter0_b_104_64)">
<rect width="1908" height="6751" fill="#171D24"/>
<g style="mix-blend-mode:lighten">
<ellipse rx="356.651" ry="420.128" transform="matrix(0.973038 -0.230643 0.158668 0.987332 1494.7 2347.58)" fill="url(#paint0_linear_104_64)" fill-opacity="0.75"/>
</g>
<g style="mix-blend-mode:lighten">
<ellipse rx="277.543" ry="326.94" transform="matrix(0.973038 -0.230643 0.158668 0.987332 522.935 5013.65)" fill="url(#paint1_linear_104_64)" fill-opacity="0.75"/>
</g>
<g style="mix-blend-mode:lighten">
<ellipse rx="252.46" ry="297.392" transform="matrix(0.973038 -0.230643 0.158668 0.987332 304.84 3196.06)" fill="url(#paint2_linear_104_64)" fill-opacity="0.75"/>
</g>
<g style="mix-blend-mode:lighten">
<path d="M684.053 6381.74C698.537 6471.87 649.151 6559.43 573.746 6577.3C498.34 6595.17 425.47 6536.6 410.986 6446.47C396.502 6356.34 445.888 6268.78 521.293 6250.91C596.699 6233.03 669.569 6291.61 684.053 6381.74Z" fill="url(#paint3_linear_104_64)" fill-opacity="0.75"/>
</g>
<g style="mix-blend-mode:lighten">
<ellipse rx="466.865" ry="549.958" transform="matrix(0.973038 -0.230643 0.158668 0.987332 1366.54 4191.46)" fill="url(#paint4_linear_104_64)" fill-opacity="0.75"/>
</g>
<g style="mix-blend-mode:lighten">
<path fill-rule="evenodd" clip-rule="evenodd" d="M0 2388.56V1108.61C27.8322 1098.87 56.6137 1090.91 86.2422 1084.9C443.811 1012.36 789.358 1250.1 858.042 1615.92C926.726 1981.74 692.539 2337.1 334.97 2409.64C219.041 2433.16 104.376 2424.07 0 2388.56Z" fill="url(#paint5_linear_104_64)" fill-opacity="0.75"/>
</g>
<g style="mix-blend-mode:lighten">
<path fill-rule="evenodd" clip-rule="evenodd" d="M1930 5431.11V6711.06C1902.17 6720.8 1873.39 6728.76 1843.76 6734.77C1486.19 6807.31 1140.64 6569.57 1071.96 6203.75C1003.27 5837.93 1237.46 5482.57 1595.03 5410.03C1710.96 5386.51 1825.62 5395.6 1930 5431.11Z" fill="url(#paint6_linear_104_64)" fill-opacity="0.75"/>
</g>
<g style="mix-blend-mode:lighten">
<path fill-rule="evenodd" clip-rule="evenodd" d="M1344.78 0L1920 0V1107.05C1905.86 1111.19 1891.48 1114.83 1876.89 1117.93C1545.76 1188.27 1225.77 957.753 1162.16 603.061C1121.11 374.159 1196.88 149.479 1344.78 0Z" fill="url(#paint7_linear_104_64)" fill-opacity="0.75"/>
</g>
</g>
<defs>
<filter id="filter0_b_104_64" x="-4" y="-4" width="1938" height="6759" filterUnits="userSpaceOnUse" color-interpolation-filters="sRGB">
<feFlood flood-opacity="0" result="BackgroundImageFix"/>
<feGaussianBlur in="BackgroundImage" stdDeviation="2"/>
<feComposite in2="SourceAlpha" operator="in" result="effect1_backgroundBlur_104_64"/>
<feBlend mode="normal" in="SourceGraphic" in2="effect1_backgroundBlur_104_64" result="shape"/>
</filter>
<linearGradient id="paint0_linear_104_64" x1="368.271" y1="20.9629" x2="201.115" y2="801.854" gradientUnits="userSpaceOnUse">
<stop stop-color="#520773"/>
<stop offset="0.425725" stop-color="#3E0557"/>
<stop offset="0.925717" stop-color="#310444"/>
</linearGradient>
<linearGradient id="paint1_linear_104_64" x1="286.585" y1="16.3132" x2="156.506" y2="623.996" gradientUnits="userSpaceOnUse">
<stop stop-color="#520773"/>
<stop offset="0.425725" stop-color="#3E0557"/>
<stop offset="0.925717" stop-color="#310444"/>
</linearGradient>
<linearGradient id="paint2_linear_104_64" x1="260.684" y1="14.8388" x2="142.361" y2="567.601" gradientUnits="userSpaceOnUse">
<stop stop-color="#520773"/>
<stop offset="0.425725" stop-color="#3E0557"/>
<stop offset="0.925717" stop-color="#310444"/>
</linearGradient>
<linearGradient id="paint3_linear_104_64" x1="364.29" y1="6790.54" x2="370.386" y2="7108.63" gradientUnits="userSpaceOnUse">
<stop stop-color="#520773"/>
<stop offset="0.425725" stop-color="#3E0557"/>
<stop offset="0.925717" stop-color="#310444"/>
</linearGradient>
<linearGradient id="paint4_linear_104_64" x1="482.075" y1="27.441" x2="263.264" y2="1049.65" gradientUnits="userSpaceOnUse">
<stop stop-color="#520773"/>
<stop offset="0.425725" stop-color="#3E0557"/>
<stop offset="0.925717" stop-color="#310444"/>
</linearGradient>
<linearGradient id="paint5_linear_104_64" x1="449.172" y1="1105.58" x2="106.068" y2="2321.65" gradientUnits="userSpaceOnUse">
<stop stop-color="#520773"/>
<stop offset="0.425725" stop-color="#3E0557"/>
<stop offset="0.925717" stop-color="#310444"/>
</linearGradient>
<linearGradient id="paint6_linear_104_64" x1="1480.83" y1="6714.09" x2="1823.93" y2="5498.02" gradientUnits="userSpaceOnUse">
<stop stop-color="#520773"/>
<stop offset="0.425725" stop-color="#3E0557"/>
<stop offset="0.925717" stop-color="#310444"/>
</linearGradient>
<linearGradient id="paint7_linear_104_64" x1="1570.27" y1="151.425" x2="1586.26" y2="842.441" gradientUnits="userSpaceOnUse">
<stop offset="0.240031" stop-color="#520773"/>
<stop offset="0.631703" stop-color="#3E0557"/>
<stop offset="0.925717" stop-color="#310444"/>
</linearGradient>
</defs>
</svg>
