<svg width="51" height="51" viewBox="0 0 51 51" fill="none" xmlns="http://www.w3.org/2000/svg">
<path opacity="0.2" d="M44.625 17.5313V40.0231C44.625 40.3982 44.476 40.758 44.2107 41.0232C43.9455 41.2885 43.5857 41.4375 43.2105 41.4375H7.96875C7.54606 41.4375 7.14068 41.2696 6.8418 40.9707C6.54291 40.6718 6.375 40.2665 6.375 39.8438V12.75C6.375 12.3273 6.54291 11.9219 6.8418 11.6231C7.14068 11.3242 7.54606 11.1563 7.96875 11.1563H18.5871C18.9322 11.1548 19.2682 11.2668 19.5434 11.475L25.0816 15.6188C25.3582 15.8244 25.6933 15.9361 26.0379 15.9375H43.0312C43.4539 15.9375 43.8593 16.1054 44.1582 16.4043C44.4571 16.7032 44.625 17.1086 44.625 17.5313Z" fill="#9F00E6"/>
<path d="M43.0312 14.3439H26.0379L20.4996 10.2001C19.9507 9.78101 19.2777 9.5567 18.5871 9.56261H7.96875C7.12337 9.56261 6.31262 9.89844 5.71485 10.4962C5.11707 11.094 4.78125 11.9047 4.78125 12.7501V39.8439C4.78125 40.6892 5.11707 41.5 5.71485 42.0978C6.31262 42.6955 7.12337 43.0314 7.96875 43.0314H43.2105C44.0068 43.0261 44.7689 42.7075 45.3319 42.1445C45.8949 41.5815 46.2135 40.8194 46.2188 40.0232V17.5314C46.2188 16.686 45.8829 15.8752 45.2852 15.2775C44.6874 14.6797 43.8766 14.3439 43.0312 14.3439ZM43.0312 39.8439H7.96875V12.7501H18.5871L24.1254 16.8939C24.6743 17.313 25.3473 17.5373 26.0379 17.5314H43.0312V39.8439Z" fill="#9F00E6"/>
</svg>
