<svg width="47" height="31" viewBox="0 0 47 31" fill="none" xmlns="http://www.w3.org/2000/svg">
<path d="M5.208 31H1.128C0.456 31 0.12 30.664 0.12 29.992V1.144C0.12 0.471999 0.456 0.136 1.128 0.136H12.552C15.048 0.136 17 0.823999 18.408 2.2C19.816 3.576 20.52 5.512 20.52 8.008V11.752C20.52 15.368 19.096 17.768 16.248 18.952V19.144L21.384 29.848C21.672 30.616 21.4 31 20.568 31H16.68C16.104 31 15.688 30.936 15.432 30.808C15.176 30.68 14.968 30.408 14.808 29.992L10.008 19.624H6.792C6.408 19.624 6.216 19.8 6.216 20.152V29.992C6.216 30.664 5.88 31 5.208 31ZM6.744 14.728H11.448C12.472 14.728 13.224 14.52 13.704 14.104C14.184 13.656 14.424 12.952 14.424 11.992V8.248C14.424 7.256 14.184 6.536 13.704 6.088C13.224 5.64 12.472 5.416 11.448 5.416H6.744C6.392 5.416 6.216 5.592 6.216 5.944V14.2C6.216 14.552 6.392 14.728 6.744 14.728ZM25.122 23.128V22.168C25.122 21.496 25.458 21.16 26.13 21.16H30.21C30.882 21.16 31.218 21.496 31.218 22.168V22.552C31.218 23.768 31.458 24.6 31.938 25.048C32.418 25.496 33.298 25.72 34.578 25.72H36.834C38.082 25.72 38.946 25.48 39.426 25C39.938 24.52 40.194 23.624 40.194 22.312V21.736C40.194 20.808 39.81 20.104 39.042 19.624C38.306 19.112 37.378 18.808 36.258 18.712C35.138 18.616 33.922 18.44 32.61 18.184C31.33 17.896 30.13 17.544 29.01 17.128C27.89 16.68 26.946 15.832 26.178 14.584C25.442 13.304 25.074 11.672 25.074 9.688V8.008C25.074 5.512 25.778 3.576 27.186 2.2C28.594 0.823999 30.546 0.136 33.042 0.136H37.842C40.37 0.136 42.338 0.823999 43.746 2.2C45.154 3.576 45.858 5.512 45.858 8.008V8.92C45.858 9.592 45.522 9.928 44.85 9.928H40.77C40.098 9.928 39.762 9.592 39.762 8.92V8.632C39.762 7.384 39.522 6.536 39.042 6.088C38.562 5.64 37.682 5.416 36.402 5.416H34.53C33.218 5.416 32.322 5.672 31.842 6.184C31.394 6.664 31.17 7.624 31.17 9.064V9.976C31.17 11.48 32.482 12.344 35.106 12.568C37.826 12.792 40.242 13.336 42.354 14.2C43.474 14.68 44.402 15.544 45.138 16.792C45.906 18.008 46.29 19.576 46.29 21.496V23.128C46.29 25.624 45.586 27.56 44.178 28.936C42.77 30.312 40.818 31 38.322 31H33.09C30.594 31 28.642 30.312 27.234 28.936C25.826 27.56 25.122 25.624 25.122 23.128Z" fill="#EEEEEE"/>
<path d="M16.248 18.952L15.8641 18.0286L15.248 18.2848V18.952H16.248ZM16.248 19.144H15.248V19.3715L15.3464 19.5766L16.248 19.144ZM21.384 29.848L22.3203 29.4969L22.3048 29.4554L22.2856 29.4154L21.384 29.848ZM15.432 30.808L14.9848 31.7024L14.9848 31.7024L15.432 30.808ZM14.808 29.992L15.7413 29.633L15.7294 29.602L15.7155 29.5719L14.808 29.992ZM10.008 19.624L10.9155 19.2039L10.647 18.624H10.008V19.624ZM13.704 14.104L14.3589 14.8597L14.3729 14.8476L14.3863 14.8351L13.704 14.104ZM13.704 6.088L14.3863 5.35694L14.3863 5.35694L13.704 6.088ZM5.208 30H1.128V32H5.208V30ZM1.128 30C1.08528 30 1.05421 29.9973 1.03317 29.9943C1.01222 29.9913 1.00311 29.9883 1.00323 29.9883C1.00366 29.9885 1.01316 29.9917 1.02825 30.0008C1.0357 30.0052 1.04404 30.0108 1.05288 30.0177C1.06173 30.0246 1.07056 30.0323 1.07911 30.0409C1.08765 30.0494 1.09541 30.0583 1.10229 30.0671C1.10916 30.076 1.11477 30.0843 1.11924 30.0918C1.1283 30.1068 1.13154 30.1163 1.13168 30.1168C1.13172 30.1169 1.12869 30.1078 1.1257 30.0868C1.12269 30.0658 1.12 30.0347 1.12 29.992H-0.88C-0.88 30.4821 -0.756786 31.0334 -0.335107 31.4551C0.0865731 31.8768 0.637855 32 1.128 32V30ZM1.12 29.992V1.144H-0.88V29.992H1.12ZM1.12 1.144C1.12 1.10128 1.12269 1.07021 1.1257 1.04917C1.12869 1.02821 1.13172 1.01911 1.13168 1.01923C1.13154 1.01966 1.1283 1.02916 1.11924 1.04425C1.11477 1.0517 1.10916 1.06004 1.10229 1.06888C1.09541 1.07773 1.08765 1.08656 1.07911 1.09511C1.07056 1.10365 1.06173 1.11141 1.05288 1.11829C1.04404 1.12516 1.0357 1.13077 1.02825 1.13524C1.01316 1.1443 1.00366 1.14754 1.00323 1.14768C1.00311 1.14772 1.01221 1.14469 1.03317 1.1417C1.05421 1.13869 1.08528 1.136 1.128 1.136V-0.864C0.637856 -0.864 0.0865737 -0.740787 -0.335106 -0.319108C-0.756786 0.102571 -0.88 0.653854 -0.88 1.144H1.12ZM1.128 1.136H12.552V-0.864H1.128V1.136ZM12.552 1.136C14.8601 1.136 16.5345 1.76729 17.7091 2.91519L19.1069 1.48481C17.4655 -0.119293 15.2359 -0.864 12.552 -0.864V1.136ZM17.7091 2.91519C18.8762 4.05579 19.52 5.70513 19.52 8.008H21.52C21.52 5.31887 20.7558 3.09621 19.1069 1.48481L17.7091 2.91519ZM19.52 8.008V11.752H21.52V8.008H19.52ZM19.52 11.752C19.52 13.4324 19.189 14.7475 18.592 15.7537C18.0016 16.7487 17.1111 17.5102 15.8641 18.0286L16.6319 19.8754C18.2329 19.2098 19.4784 18.1793 20.312 16.7743C21.139 15.3805 21.52 13.6876 21.52 11.752H19.52ZM15.248 18.952V19.144H17.248V18.952H15.248ZM15.3464 19.5766L20.4824 30.2806L22.2856 29.4154L17.1496 18.7114L15.3464 19.5766ZM20.4477 30.1991C20.4949 30.3252 20.4952 30.3747 20.4951 30.3659C20.495 30.3581 20.4955 30.3287 20.5075 30.2848C20.5201 30.2393 20.543 30.1862 20.58 30.134C20.6588 30.0227 20.7479 29.9872 20.7585 29.9835C20.7605 29.9828 20.7076 30 20.568 30V32C21.0657 32 21.7823 31.8967 22.212 31.29C22.647 30.6759 22.4953 29.9634 22.3203 29.4969L20.4477 30.1991ZM20.568 30H16.68V32H20.568V30ZM16.68 30C16.4258 30 16.2312 29.9857 16.0881 29.9636C16.0174 29.9528 15.9653 29.9409 15.9287 29.9305C15.8917 29.9199 15.8774 29.9127 15.8792 29.9136L14.9848 31.7024C15.4603 31.9402 16.0753 32 16.68 32V30ZM15.8792 29.9136C15.9114 29.9297 15.9079 29.9392 15.8784 29.9006C15.8467 29.8592 15.7968 29.7772 15.7413 29.633L13.8747 30.351C14.0763 30.8752 14.4096 31.4148 14.9848 31.7024L15.8792 29.9136ZM15.7155 29.5719L10.9155 19.2039L9.10053 20.0441L13.9005 30.4121L15.7155 29.5719ZM10.008 18.624H6.792V20.624H10.008V18.624ZM6.792 18.624C6.46637 18.624 6.03562 18.6968 5.68428 19.0188C5.31646 19.356 5.216 19.7984 5.216 20.152H7.216C7.216 20.1536 7.21154 20.332 7.03572 20.4932C6.87638 20.6392 6.73363 20.624 6.792 20.624V18.624ZM5.216 20.152V29.992H7.216V20.152H5.216ZM5.216 29.992C5.216 30.0347 5.21331 30.0658 5.2103 30.0868C5.20731 30.1078 5.20428 30.1169 5.20432 30.1168C5.20446 30.1163 5.2077 30.1068 5.21676 30.0918C5.22123 30.0843 5.22684 30.076 5.23371 30.0671C5.24059 30.0583 5.24835 30.0494 5.25689 30.0409C5.26544 30.0323 5.27427 30.0246 5.28312 30.0177C5.29196 30.0108 5.3003 30.0052 5.30775 30.0008C5.32284 29.9917 5.33234 29.9885 5.33277 29.9883C5.33289 29.9883 5.32379 29.9913 5.30283 29.9943C5.28179 29.9973 5.25072 30 5.208 30V32C5.69814 32 6.24943 31.8768 6.67111 31.4551C7.09279 31.0334 7.216 30.4821 7.216 29.992H5.216ZM6.744 15.728H11.448V13.728H6.744V15.728ZM11.448 15.728C12.5742 15.728 13.6144 15.5049 14.3589 14.8597L13.0491 13.3483C12.8336 13.5351 12.3698 13.728 11.448 13.728V15.728ZM14.3863 14.8351C15.1473 14.1248 15.424 13.0999 15.424 11.992H13.424C13.424 12.8041 13.2207 13.1872 13.0217 13.3729L14.3863 14.8351ZM15.424 11.992V8.248H13.424V11.992H15.424ZM15.424 8.248C15.424 7.11985 15.153 6.07256 14.3863 5.35694L13.0217 6.81905C13.215 6.99944 13.424 7.39215 13.424 8.248H15.424ZM14.3863 5.35694C13.641 4.66132 12.5888 4.416 11.448 4.416V6.416C12.3552 6.416 12.807 6.61867 13.0217 6.81905L14.3863 5.35694ZM11.448 4.416H6.744V6.416H11.448V4.416ZM6.744 4.416C6.41385 4.416 5.98257 4.49921 5.64089 4.84089C5.29921 5.18257 5.216 5.61385 5.216 5.944H7.216C7.216 5.92214 7.22079 6.08942 7.05511 6.2551C6.88943 6.42078 6.72215 6.416 6.744 6.416V4.416ZM5.216 5.944V14.2H7.216V5.944H5.216ZM5.216 14.2C5.216 14.5301 5.29921 14.9614 5.64089 15.3031C5.98257 15.6448 6.41386 15.728 6.744 15.728V13.728C6.72215 13.728 6.88943 13.7232 7.05511 13.8889C7.22079 14.0546 7.216 14.2219 7.216 14.2H5.216ZM31.938 25.048L31.2557 25.7791L31.2557 25.7791L31.938 25.048ZM39.426 25L38.7421 24.2705L38.7303 24.2815L38.7189 24.2929L39.426 25ZM39.042 19.624L38.4709 20.4449L38.4911 20.459L38.512 20.472L39.042 19.624ZM36.258 18.712L36.3434 17.7157L36.3434 17.7157L36.258 18.712ZM32.61 18.184L32.3905 19.1596L32.4044 19.1627L32.4185 19.1655L32.61 18.184ZM29.01 17.128L28.6386 18.0565L28.6502 18.0611L28.6618 18.0654L29.01 17.128ZM26.178 14.584L25.3111 15.0825L25.3185 15.0954L25.3263 15.1081L26.178 14.584ZM27.186 2.2L27.8849 2.91519L27.8849 2.91519L27.186 2.2ZM43.746 2.2L43.0471 2.91519L43.0471 2.91519L43.746 2.2ZM39.042 6.088L39.7243 5.35694L39.7243 5.35694L39.042 6.088ZM31.842 6.184L31.1125 5.50006L31.1109 5.50168L31.842 6.184ZM35.106 12.568L35.0209 13.5644L35.0239 13.5646L35.106 12.568ZM42.354 14.2L42.7479 13.2809L42.7403 13.2776L42.7326 13.2745L42.354 14.2ZM45.138 16.792L44.2766 17.3L44.2844 17.3131L44.2925 17.326L45.138 16.792ZM27.234 28.936L26.5351 29.6512L26.5351 29.6512L27.234 28.936ZM26.122 23.128V22.168H24.122V23.128H26.122ZM26.122 22.168C26.122 22.1253 26.1247 22.0942 26.1277 22.0732C26.1307 22.0522 26.1337 22.0431 26.1337 22.0432C26.1335 22.0437 26.1303 22.0532 26.1212 22.0682C26.1168 22.0757 26.1112 22.084 26.1043 22.0929C26.0974 22.1017 26.0897 22.1106 26.0811 22.1191C26.0726 22.1277 26.0637 22.1354 26.0549 22.1423C26.046 22.1492 26.0377 22.1548 26.0302 22.1592C26.0152 22.1683 26.0057 22.1715 26.0052 22.1717C26.0051 22.1717 26.0142 22.1687 26.0352 22.1657C26.0562 22.1627 26.0873 22.16 26.13 22.16V20.16C25.6399 20.16 25.0886 20.2832 24.6669 20.7049C24.2452 21.1266 24.122 21.6779 24.122 22.168H26.122ZM26.13 22.16H30.21V20.16H26.13V22.16ZM30.21 22.16C30.2527 22.16 30.2838 22.1627 30.3048 22.1657C30.3258 22.1687 30.3349 22.1717 30.3348 22.1717C30.3343 22.1715 30.3248 22.1683 30.3098 22.1592C30.3023 22.1548 30.294 22.1492 30.2851 22.1423C30.2763 22.1354 30.2674 22.1277 30.2589 22.1191C30.2503 22.1106 30.2426 22.1017 30.2357 22.0929C30.2288 22.084 30.2232 22.0757 30.2188 22.0682C30.2097 22.0532 30.2065 22.0437 30.2063 22.0432C30.2063 22.0431 30.2093 22.0522 30.2123 22.0732C30.2153 22.0942 30.218 22.1253 30.218 22.168H32.218C32.218 21.6779 32.0948 21.1266 31.6731 20.7049C31.2514 20.2832 30.7001 20.16 30.21 20.16V22.16ZM30.218 22.168V22.552H32.218V22.168H30.218ZM30.218 22.552C30.218 23.8302 30.4566 25.0332 31.2557 25.7791L32.6203 24.3169C32.4594 24.1668 32.218 23.7058 32.218 22.552H30.218ZM31.2557 25.7791C32.0316 26.5032 33.254 26.72 34.578 26.72V24.72C33.342 24.72 32.8044 24.4888 32.6203 24.3169L31.2557 25.7791ZM34.578 26.72H36.834V24.72H34.578V26.72ZM36.834 26.72C38.1461 26.72 39.3599 26.4803 40.1331 25.7071L38.7189 24.2929C38.5321 24.4797 38.0179 24.72 36.834 24.72V26.72ZM40.1099 25.7295C40.9408 24.9507 41.194 23.6828 41.194 22.312H39.194C39.194 23.5652 38.9353 24.0893 38.7421 24.2705L40.1099 25.7295ZM41.194 22.312V21.736H39.194V22.312H41.194ZM41.194 21.736C41.194 20.4736 40.6411 19.4442 39.572 18.776L38.512 20.472C38.9789 20.7638 39.194 21.1424 39.194 21.736H41.194ZM39.6131 18.8031C38.7012 18.1687 37.5942 17.8229 36.3434 17.7157L36.1726 19.7083C37.1618 19.7931 37.9108 20.0553 38.4709 20.4449L39.6131 18.8031ZM36.3434 17.7157C35.2649 17.6232 34.0848 17.4529 32.8015 17.2025L32.4185 19.1655C33.7592 19.4271 35.0111 19.6088 36.1726 19.7083L36.3434 17.7157ZM32.8295 17.2084C31.589 16.9293 30.4324 16.5895 29.3582 16.1906L28.6618 18.0654C29.8277 18.4984 31.071 18.8627 32.3905 19.1596L32.8295 17.2084ZM29.3814 16.1995C28.5005 15.8472 27.7099 15.1652 27.0297 14.0599L25.3263 15.1081C26.1821 16.4988 27.2795 17.5128 28.6386 18.0565L29.3814 16.1995ZM27.0449 14.0855C26.4211 13.0006 26.074 11.555 26.074 9.688H24.074C24.074 11.789 24.4629 13.6074 25.3111 15.0825L27.0449 14.0855ZM26.074 9.688V8.008H24.074V9.688H26.074ZM26.074 8.008C26.074 5.70513 26.7178 4.05579 27.8849 2.91519L26.4871 1.48481C24.8382 3.09621 24.074 5.31887 24.074 8.008H26.074ZM27.8849 2.91519C29.0595 1.76729 30.7339 1.136 33.042 1.136V-0.864C30.3581 -0.864 28.1285 -0.119293 26.4871 1.48481L27.8849 2.91519ZM33.042 1.136H37.842V-0.864H33.042V1.136ZM37.842 1.136C40.1862 1.136 41.8748 1.76954 43.0471 2.91519L44.4449 1.48481C42.8012 -0.121546 40.5538 -0.864 37.842 -0.864V1.136ZM43.0471 2.91519C44.2142 4.05579 44.858 5.70513 44.858 8.008H46.858C46.858 5.31887 46.0938 3.09621 44.4449 1.48481L43.0471 2.91519ZM44.858 8.008V8.92H46.858V8.008H44.858ZM44.858 8.92C44.858 8.96272 44.8553 8.99379 44.8523 9.01483C44.8493 9.03578 44.8463 9.04489 44.8463 9.04477C44.8465 9.04434 44.8497 9.03484 44.8588 9.01975C44.8632 9.0123 44.8688 9.00396 44.8757 8.99512C44.8826 8.98627 44.8903 8.97744 44.8989 8.96889C44.9074 8.96034 44.9163 8.95259 44.9251 8.94571C44.934 8.93884 44.9423 8.93323 44.9498 8.92876C44.9648 8.9197 44.9743 8.91646 44.9748 8.91632C44.9749 8.91628 44.9658 8.91931 44.9448 8.9223C44.9238 8.92531 44.8927 8.928 44.85 8.928V10.928C45.3401 10.928 45.8914 10.8048 46.3131 10.3831C46.7348 9.96143 46.858 9.41014 46.858 8.92H44.858ZM44.85 8.928H40.77V10.928H44.85V8.928ZM40.77 8.928C40.7273 8.928 40.6962 8.92531 40.6752 8.9223C40.6542 8.91931 40.6451 8.91628 40.6452 8.91632C40.6457 8.91646 40.6552 8.9197 40.6702 8.92876C40.6777 8.93323 40.686 8.93884 40.6949 8.94571C40.7037 8.95259 40.7126 8.96034 40.7211 8.96889C40.7297 8.97744 40.7374 8.98627 40.7443 8.99512C40.7512 9.00396 40.7568 9.0123 40.7612 9.01975C40.7703 9.03484 40.7735 9.04434 40.7737 9.04477C40.7737 9.04489 40.7707 9.03578 40.7677 9.01483C40.7647 8.99379 40.762 8.96272 40.762 8.92H38.762C38.762 9.41014 38.8852 9.96143 39.3069 10.3831C39.7286 10.8048 40.2799 10.928 40.77 10.928V8.928ZM40.762 8.92V8.632H38.762V8.92H40.762ZM40.762 8.632C40.762 7.33127 40.5271 6.10622 39.7243 5.35694L38.3597 6.81905C38.5169 6.96578 38.762 7.43673 38.762 8.632H40.762ZM39.7243 5.35694C38.9484 4.63276 37.726 4.416 36.402 4.416V6.416C37.638 6.416 38.1756 6.64724 38.3597 6.81905L39.7243 5.35694ZM36.402 4.416H34.53V6.416H36.402V4.416ZM34.53 4.416C33.1592 4.416 31.8913 4.66925 31.1125 5.50006L32.5715 6.86794C32.7527 6.67475 33.2768 6.416 34.53 6.416V4.416ZM31.1109 5.50168C30.7223 5.91804 30.4975 6.46545 30.3642 7.03677C30.2288 7.61679 30.17 8.29914 30.17 9.064H32.17C32.17 8.38886 32.2232 7.8712 32.3118 7.49123C32.4025 7.10255 32.5137 6.92996 32.5731 6.86632L31.1109 5.50168ZM30.17 9.064V9.976H32.17V9.064H30.17ZM30.17 9.976C30.17 11.0819 30.6821 11.9801 31.604 12.5872C32.4634 13.1531 33.6418 13.4466 35.0209 13.5644L35.1911 11.5716C33.9462 11.4654 33.1566 11.2149 32.704 10.9168C32.3139 10.6599 32.17 10.3741 32.17 9.976H30.17ZM35.0239 13.5646C37.6614 13.7818 39.9744 14.307 41.9754 15.1255L42.7326 13.2745C40.5096 12.365 37.9906 11.8022 35.1881 11.5714L35.0239 13.5646ZM41.9601 15.1191C42.8496 15.5004 43.6277 16.1996 44.2766 17.3L45.9994 16.284C45.1763 14.8884 44.0984 13.8596 42.7479 13.2809L41.9601 15.1191ZM44.2925 17.326C44.931 18.337 45.29 19.7033 45.29 21.496H47.29C47.29 19.4487 46.881 17.679 45.9835 16.258L44.2925 17.326ZM45.29 21.496V23.128H47.29V21.496H45.29ZM45.29 23.128C45.29 25.4309 44.6462 27.0802 43.4791 28.2208L44.8769 29.6512C46.5258 28.0398 47.29 25.8171 47.29 23.128H45.29ZM43.4791 28.2208C42.3045 29.3687 40.6301 30 38.322 30V32C41.0059 32 43.2355 31.2553 44.8769 29.6512L43.4791 28.2208ZM38.322 30H33.09V32H38.322V30ZM33.09 30C30.7819 30 29.1075 29.3687 27.9329 28.2208L26.5351 29.6512C28.1765 31.2553 30.4061 32 33.09 32V30ZM27.9329 28.2208C26.7658 27.0802 26.122 25.4309 26.122 23.128H24.122C24.122 25.8171 24.8862 28.0398 26.5351 29.6512L27.9329 28.2208Z" fill="#FF5100"/>
</svg>
